<?xml version="1.0" encoding="utf-8"?>
<!-- Generator: Adobe Illustrator 27.6.1, SVG Export Plug-In . SVG Version: 6.00 Build 0)  -->
<svg version="1.1" id="Слой_1" xmlns="http://www.w3.org/2000/svg" xmlns:xlink="http://www.w3.org/1999/xlink" x="0px" y="0px"
	 viewBox="0 0 60 28" style="enable-background:new 0 0 60 28;" xml:space="preserve">
<style type="text/css">
	.st0{fill:#FFFFFF;}
	.st1{fill:#009C40;}
	.st2{fill:#030404;}
	.st3{fill:#FCFCFC;}
	.st4{fill:#FBFBFB;}
	.st5{fill:#5E5A5A;}
	.st6{fill:#1F1E1E;}
	.st7{fill:#009C42;}
</style>
<g>
	<g>
		<path class="st0" d="M52.88,15.14c-0.2,0-0.49-0.07-0.71-0.43c-0.38-0.56-0.82-1.09-1.29-1.59c-0.16-0.17-0.24-0.34-0.26-0.48
			c-0.38-0.15-0.75-0.33-1.1-0.56l-0.02-0.01l-0.02-0.01c-0.32-0.23-0.59-0.52-0.8-0.84c-0.48-0.64-0.52-1.52-0.1-2.21l0.12-0.19
			c0.31-0.5,0.63-1.02,0.92-1.53c0.01-0.02,0.02-0.03,0.03-0.06L49.63,7.2c-0.4-0.32-0.39-0.75-0.25-1.02l0.01-0.02
			c0.04-0.07,0.11-0.17,0.23-0.26c0.14-0.1,0.3-0.15,0.47-0.15c0.19,0,0.36,0.06,0.46,0.12c0.06,0.03,0.06,0.03,2.37,1.59
			c0.33,0.22,0.42,0.5,0.44,0.69c0.01,0.09,0,0.18-0.02,0.26c0.12-0.06,0.24-0.07,0.33-0.07c0.2,0,0.48,0.07,0.7,0.41
			c0.66,0.63,1.29,1.32,1.86,2.03c0.07,0.09,0.3,0.37,0.25,0.76c-0.05,0.39-0.34,0.6-0.46,0.7l-0.02,0.01
			c-0.59,0.42-1.19,0.86-1.77,1.29c-0.19,0.14-0.6,0.44-0.61,0.45c0.12,0.29,0.08,0.64-0.14,0.89l-0.07,0.08l-0.1,0.06
			C53.17,15.1,53.03,15.14,52.88,15.14C52.88,15.14,52.88,15.14,52.88,15.14z M51.44,10.99l0.06,0.03c0.04,0.02,0.08,0.03,0.12,0.03
			c0.07,0,0.14-0.03,0.18-0.09l0.01-0.01c0.27-0.32,0.56-0.59,0.85-0.85c0.14-0.13,0.27-0.25,0.4-0.38c-0.1-0.11-0.23-0.3-0.23-0.57
			c-0.23,0.28-0.45,0.55-0.67,0.81c-0.27,0.32-0.54,0.64-0.8,0.97c0,0.01-0.01,0.01-0.01,0.02C51.36,10.96,51.44,10.99,51.44,10.99z
			"/>
		<path class="st0" d="M49.91,11.49c0.52,0.34,1.1,0.58,1.71,0.71l-0.22,0.19c-0.11,0.08-0.09,0.15,0,0.24
			c0.5,0.52,0.97,1.09,1.38,1.69c0.04,0.05,0.07,0.15,0.16,0.09c0.04-0.05,0.04-0.12,0-0.17c-0.27-0.41,0-0.64,0.3-0.86
			c0.78-0.58,1.56-1.16,2.35-1.72c0.19-0.15,0.25-0.23,0.08-0.44c-0.56-0.71-1.18-1.38-1.85-2.01c-0.05-0.05-0.1-0.24-0.22-0.13
			c-0.12,0.1,0.04,0.19,0.09,0.27c0.27,0.38,0.33,0.43-0.08,0.84c-0.41,0.41-0.87,0.78-1.25,1.22c-0.3,0.37-0.83,0.46-1.23,0.22
			c-0.62-0.22-0.73-0.64-0.32-1.15c0.56-0.69,1.14-1.36,1.71-2.07c0.08-0.08,0.13-0.15,0.12-0.21c-0.01-0.09-0.09-0.14-0.12-0.16
			c-2.28-1.53-2.28-1.54-2.3-1.54c0,0-0.13-0.07-0.19-0.03c-0.02,0.01-0.03,0.03-0.03,0.03c-0.04,0.09,0.05,0.12,0.1,0.17
			c0.44,0.41,0.47,0.39,0.13,0.97c-0.34,0.58-0.7,1.17-1.05,1.74c-0.27,0.44-0.25,1.01,0.07,1.42
			C49.43,11.07,49.65,11.3,49.91,11.49z"/>
		<path class="st0" d="M45.78,9.7c-1.09,0-2.16-0.29-3.1-0.83c-0.59-0.32-1.07-0.8-1.39-1.4c-0.62-1.06-0.32-2.44,0.69-3.14
			c0.67-0.47,1.46-0.72,2.27-0.72c0.09,0,0.18,0,0.27,0.01c1.22,0.05,2.4,0.51,3.34,1.29c0.9,0.62,1.31,1.75,1.03,2.81l-0.01,0.03
			c-0.34,1.09-1.33,1.86-2.48,1.92C46.2,9.68,45.99,9.7,45.78,9.7C45.78,9.7,45.78,9.7,45.78,9.7z M44.49,7.32
			c0,0.43,0.1,0.45,0.2,0.48c0.06,0.01,0.1,0.02,0.12,0.02c0.02,0,0.03,0,0.03,0l0,0c0,0,0.07-0.04,0.16-0.26l0.01-0.02
			c0.26-0.55,0.45-1.14,0.57-1.75l0-0.02l0-0.02c0.03-0.11-0.03-0.22-0.14-0.26h-0.02l-0.09-0.02c-0.1-0.03-0.19-0.04-0.26-0.04
			c-0.09,0-0.12,0-0.18,0.15C44.59,6.33,44.5,7.16,44.49,7.32z"/>
		<path class="st0" d="M41.92,7.12c0.26,0.48,0.64,0.87,1.12,1.12c1,0.58,2.17,0.83,3.32,0.71c0.86-0.04,1.59-0.6,1.85-1.42
			c0.21-0.78-0.1-1.6-0.77-2.05c-0.83-0.7-1.86-1.11-2.95-1.15c-0.74-0.05-1.48,0.15-2.1,0.58C41.68,5.41,41.47,6.37,41.92,7.12z
			 M44.23,5.31c0.21-0.53,0.64-0.71,1.29-0.53c0.02,0,0.04,0.01,0.07,0.01c0.5,0.12,0.81,0.63,0.69,1.13
			c-0.13,0.67-0.33,1.31-0.63,1.93c-0.26,0.6-0.61,0.78-1.13,0.66c-0.52-0.12-0.75-0.49-0.75-1.2C43.77,7.29,43.85,6.27,44.23,5.31z
			"/>
		<path class="st0" d="M58.72,20.91c-0.62,0-1.15-0.51-1.32-1.27c-0.12-0.47-0.12-0.97,0-1.45l0.01-0.03
			c0.06-0.22-0.06-0.44-0.28-0.51c-0.03-0.01-0.07-0.01-0.11-0.01c-0.02,0-0.03,0-0.05,0c-0.5,0.09-0.99,0.24-1.46,0.45
			c0.16,0.56-0.19,0.89-0.43,0.99c-0.1,0.04-0.21,0.07-0.32,0.07c-0.15,0-0.65-0.05-0.8-0.73c-0.28-0.88-0.64-1.73-1.09-2.53
			c-0.08-0.1-0.23-0.32-0.2-0.63c0.02-0.22,0.14-0.41,0.32-0.55c0.15-0.11,0.32-0.17,0.5-0.17c0.26,0,0.48,0.11,0.65,0.33l0.28-0.14
			c0.6-0.3,1.23-0.61,1.83-0.92c0-0.01-0.02-0.04-0.02-0.04c-0.11-0.22-0.13-0.43-0.06-0.64c0.07-0.22,0.23-0.39,0.46-0.49
			c0.12-0.05,0.23-0.08,0.35-0.08c0.14,0,0.6,0.04,0.77,0.61c0.46,0.85,0.87,1.74,1.2,2.66c0.11,0.29,0.1,0.56-0.02,0.79
			c-0.03,0.06-0.07,0.11-0.11,0.16c0.63,0.65,1.02,1.47,1.12,2.37c0.12,0.82-0.31,1.58-0.97,1.73C58.88,20.9,58.8,20.91,58.72,20.91
			L58.72,20.91z"/>
		<path class="st0" d="M59.23,19.23c-0.09-0.83-0.48-1.59-1.11-2.13c-0.19-0.16-0.39-0.32-0.62-0.49l0.6-0.21
			c0.18-0.05,0.26-0.11,0.18-0.33c-0.33-0.9-0.72-1.77-1.18-2.61c-0.04-0.08-0.03-0.24-0.18-0.17c-0.15,0.07,0,0.17,0,0.25
			c0.18,0.49,0.16,0.65-0.21,0.83c-0.78,0.4-1.57,0.8-2.36,1.19l-0.01,0.01c-0.24,0.15-0.55,0.07-0.7-0.18
			c-0.05-0.07-0.11-0.2-0.21-0.12c-0.1,0.08,0.01,0.15,0.05,0.22c0.49,0.87,0.88,1.79,1.18,2.73c0.02,0.08,0.04,0.24,0.14,0.19
			c0.1-0.04,0-0.16,0-0.26c-0.04-0.23-0.1-0.5,0.17-0.61c0.6-0.3,1.23-0.51,1.9-0.63c0.16-0.02,0.32-0.01,0.47,0.03
			c0.6,0.18,0.94,0.8,0.77,1.39c-0.09,0.37-0.09,0.75,0,1.12c0.11,0.49,0.43,0.78,0.71,0.71C59.09,20.11,59.3,19.7,59.23,19.23z"/>
		<path class="st0" d="M24.58,26c-0.48,0-0.85-0.1-1.01-0.15c-0.25-0.07-0.46-0.16-0.64-0.26c-0.13-0.08-0.39-0.27-0.63-0.57
			c-0.38-0.49-0.46-0.99-0.48-1.13c-0.05-0.43-0.01-0.84,0.14-1.2c0.16-0.38,0.4-0.72,0.7-0.97c0,0,0.05-0.04,0.07-0.05
			c-0.1-0.07-0.19-0.16-0.27-0.26c-0.21-0.26-0.32-0.58-0.32-0.9c0-0.31,0.1-0.6,0.28-0.85c0.15-0.25,0.34-0.46,0.56-0.61
			c0.64-0.47,1.39-0.79,2.17-0.93c0.3-0.05,0.61-0.08,0.92-0.08c0.5,0,0.99,0.07,1.46,0.21c1.34,0.38,2.03,1.31,2.05,2.77l0,1.73
			c0,0.04,0,0.1,0,0.15c0.23,0.05,0.43,0.18,0.56,0.38c0.16,0.25,0.2,0.58,0.11,0.92c-0.14,0.51-0.44,0.85-0.61,1.01
			c-0.19,0.18-0.36,0.3-0.45,0.36c-0.1,0.06-0.29,0.19-0.54,0.29C28.37,25.95,28.08,26,27.77,26h0c-0.36,0-0.64-0.07-0.82-0.13
			c-0.15-0.05-0.3-0.12-0.42-0.2c-0.08-0.05-0.16-0.11-0.23-0.17c-0.07,0.04-0.25,0.15-0.25,0.15l-0.02,0.01
			c-0.19,0.09-0.39,0.17-0.59,0.23C25.15,25.96,24.87,26,24.58,26z M25.45,22.9 M25.38,20.82c0.02,0,0.03,0,0.05,0
			c0-0.02,0-0.03-0.01-0.05C25.41,20.79,25.39,20.81,25.38,20.82z"/>
		<path class="st0" d="M29.41,23.58c-0.54-0.07-0.54-0.47-0.54-0.84v-1.73c-0.01-1.11-0.47-1.79-1.53-2.09
			c-0.66-0.19-1.38-0.23-2.05-0.11c-0.68,0.12-1.33,0.4-1.88,0.81c-0.16,0.11-0.29,0.27-0.39,0.43c-0.11,0.13-0.16,0.29-0.16,0.45
			c0,0.17,0.06,0.33,0.16,0.45c0.11,0.13,0.25,0.22,0.42,0.25c0.16,0.04,0.34,0.01,0.48-0.06c0.17-0.07,0.32-0.16,0.46-0.28
			c0.06-0.05,0.04-0.05,0.32-0.36c0.06-0.06,0.12-0.13,0.25-0.28c0.12-0.14,0.23-0.25,0.3-0.33c0.04-0.02,0.11-0.06,0.21-0.06
			c0.18-0.01,0.31,0.09,0.34,0.12c0.16,0.18,0.27,0.41,0.31,0.64c0.05,0.24,0.04,0.48-0.04,0.71c-0.06,0.37-0.45,0.21-0.71,0.24H25
			c-0.69,0.04-1.34,0.29-1.88,0.72c-0.22,0.18-0.39,0.42-0.49,0.69c-0.11,0.27-0.13,0.55-0.1,0.84c0.01,0.08,0.07,0.44,0.34,0.78
			c0.19,0.24,0.39,0.37,0.44,0.4c0.06,0.04,0.2,0.11,0.45,0.19c0.25,0.07,0.81,0.22,1.48,0.03c0.13-0.04,0.29-0.09,0.46-0.18
			c0.3-0.18,0.52-0.31,0.52-0.31c0,0,0,0,0,0c0,0,0,0,0.01,0c0,0,0.01-0.01,0.01-0.01c0.02-0.01,0.04-0.02,0.05-0.03
			c0.02-0.01,0.02-0.01,0.03-0.01c0.02,0,0.03,0,0.05,0c0.03,0,0.04,0,0.05,0c0.01,0,0.03,0.01,0.05,0.01
			c0.01,0,0.02,0.01,0.04,0.02c0,0,0.02,0.01,0.04,0.04c0.02,0.02,0.03,0.03,0.03,0.04c0.02,0.03,0.13,0.17,0.32,0.29
			c0.03,0.02,0.13,0.08,0.27,0.13c0.28,0.1,0.74,0.16,1.21-0.02c0.19-0.07,0.33-0.17,0.41-0.22c0.08-0.05,0.21-0.14,0.34-0.27
			c0.13-0.12,0.33-0.37,0.42-0.7C29.61,23.82,29.6,23.6,29.41,23.58z M26.05,23.63c-0.01,0.05-0.04,0.08-0.07,0.12
			c-0.07,0.08-0.18,0.14-0.3,0.14c-0.11,0.01-0.23-0.04-0.31-0.11c-0.1-0.1-0.17-0.23-0.21-0.36c-0.04-0.13-0.04-0.28,0.01-0.41
			c0.02-0.12,0.08-0.24,0.17-0.34c0.08-0.1,0.21-0.16,0.33-0.19c0.36-0.1,0.51,0.07,0.51,0.59C26.17,23.27,26.14,23.46,26.05,23.63z
			"/>
		<path class="st0" d="M56.21,23.15c-0.12-0.15-0.29-0.25-0.47-0.3c0,0,0-0.01,0-0.01c-0.04-0.61-0.06-1.19-0.03-1.8l0-0.02l0-0.02
			c-0.02-1.54-0.8-2.51-2.32-2.88l-0.03-0.01l-0.03,0c-0.35-0.06-0.71-0.09-1.07-0.1c-0.22-1.62-0.87-3.16-1.87-4.47
			c0,0-1.47-1.91-3.94-3.03c-0.11-0.05-1.08-0.48-2.07-0.66c-0.32-0.06-0.65-0.09-0.65-0.09c-0.13-0.01-0.54-0.05-1.08-0.05
			c-0.38,0-0.76,0.02-1.12,0.06c-0.88,0.1-1.75,0.32-2.57,0.66c-0.55,0.22-1.06,0.48-1.54,0.78c-1.26,0.81-1.99,1.74-2.39,2.23
			c-0.46,0.59-0.88,1.24-1.23,1.93c-0.14,0.25-0.27,0.52-0.39,0.78c-0.13,0.3-0.24,0.61-0.33,0.91c-0.06,0.2-0.11,0.42-0.16,0.64
			c-0.03,0.14-0.05,0.28-0.06,0.42c-1,0.18-1.7,0.41-2.6,0.85c-0.66,0.32-0.79,0.8-0.81,1.06c-0.02,0.26,0.05,0.75,0.67,1.15
			l0.02,0.01l0.02,0.01c0,0,0.02,0.01,0.03,0.03c0.01,0.03,0.02,0.05,0.02,0.06l0,0.03l0,0.03c0.01,0.67-0.03,1.33-0.08,2.03l0,0.06
			c0,0.01-0.01,0.02-0.02,0.04c-0.22,0.16-0.61,0.62-0.56,1.18c0.06,0.59,0.57,0.88,0.78,1c0.34,0.19,0.67,0.24,0.94,0.27
			c0.3,0.03,0.6,0.05,0.89,0.05c0.25,0,0.5-0.01,0.75-0.04c0.46-0.05,0.75-0.11,1.06-0.24c0.13-0.05,0.3-0.13,0.46-0.24
			c0.15,0.15,0.31,0.22,0.47,0.28c0.2,0.08,0.42,0.14,0.65,0.18c0.04,0.01,0.08,0.01,0.12,0.02c0.27,0.04,0.5,0.04,0.75,0.05
			c0.08,0,0.16,0,0.23,0c0.16,0,0.32,0,0.47-0.01c0.18-0.01,0.35-0.02,0.53-0.04c0.4-0.04,0.66-0.1,0.9-0.2
			c0.06-0.03,0.29-0.12,0.51-0.31c0.09-0.08,0.16-0.16,0.22-0.26c0.07-0.12,0.13-0.25,0.16-0.39c0.06-0.25,0.04-0.5-0.04-0.72
			c-0.06-0.15-0.17-0.36-0.37-0.53c-0.04-0.05-0.07-0.1-0.09-0.15c-0.02-0.06-0.04-0.14-0.04-0.24l0-0.1c0-0.11,0-0.27,0-0.47
			c0.11,0.71,0.39,1.22,0.49,1.41c0.59,1.07,1.36,1.71,2.3,1.93c0.16,0.04,0.42,0.08,0.72,0.08c0.27,0,0.54-0.03,0.79-0.1
			c0.28-0.08,0.58-0.21,0.82-0.33c0.02,0.04,0.05,0.07,0.08,0.11c0.11,0.13,0.32,0.28,0.65,0.32l0.04,0l0.68-0.01l0.03,0
			c0.07,0,0.17-0.01,0.29-0.02c0.46-0.04,0.89-0.13,1.33-0.28c0.36-0.12,0.57-0.22,0.81-0.38c0.17-0.12,0.31-0.26,0.41-0.41
			c0.03,0.04,0.06,0.09,0.1,0.13c0.38,0.48,0.84,0.67,0.99,0.74c0.27,0.11,0.5,0.15,0.7,0.18l0.03,0c0.12,0.02,0.32,0.05,0.59,0.05
			c0.28,0,0.56-0.04,0.83-0.11l0.03-0.01l0.03-0.01c0.17-0.06,0.35-0.13,0.51-0.21c0.1-0.05,0.21-0.11,0.31-0.17c0,0,0,0,0,0
			c0.2,0.17,0.46,0.3,0.56,0.34L53,25.86l0.03,0.01C53.28,25.96,53.54,26,53.8,26l0.02,0c0.34,0,0.67-0.07,0.99-0.21
			c0.14-0.05,0.28-0.12,0.41-0.19c0.22-0.12,0.47-0.29,0.72-0.58c0.2-0.23,0.35-0.53,0.45-0.88l0.01-0.03l0.01-0.03
			C56.49,23.61,56.34,23.31,56.21,23.15z M43.64,21.77l0,0.02l0,0.02c0.01,0.41-0.02,0.77-0.11,1.1c0,0,0,0.01,0,0.01
			c-0.12-0.33-0.18-0.69-0.16-1.05c0.02-0.3,0.09-0.6,0.22-0.88C43.63,21.25,43.65,21.51,43.64,21.77z M48.81,21.67
			c-0.33,0.26-0.59,0.61-0.74,1c-0.07,0.17-0.11,0.35-0.14,0.53c-0.03-0.02-0.06-0.06-0.08-0.1c-0.01-0.03-0.02-0.07-0.01-0.11
			l0.01-0.05v-2.32l0.48,0.3c0.05,0.17,0.14,0.33,0.25,0.47c0.08,0.1,0.17,0.18,0.26,0.25C48.83,21.65,48.82,21.66,48.81,21.67z"/>
		<path class="st0" d="M55.5,23.54c-0.4-0.04-0.43-0.31-0.48-0.62c-0.05-0.64-0.06-1.27-0.04-1.91c-0.01-1.23-0.58-1.91-1.77-2.2
			c-0.52-0.08-1.05-0.11-1.57-0.07l-0.05,0c0-0.06,0-0.11,0-0.17c-0.01-0.13-0.02-0.26-0.04-0.38l0,0c-0.2-1.53-0.8-2.98-1.74-4.22
			c-0.94-1.23-2.21-2.21-3.64-2.8c-0.04-0.01-0.06-0.02-0.08-0.03c-0.08-0.03-0.14-0.05-0.15-0.06c-0.06-0.02-0.28-0.1-0.91-0.35
			c-0.77-0.19-1.13-0.26-1.27-0.26c-0.01,0-0.02,0-0.03,0l0,0c0,0-0.01,0-0.01,0c-0.43-0.05-1.22-0.1-2.13,0
			c-0.97,0.11-1.78,0.36-2.39,0.62c-0.49,0.19-0.97,0.43-1.41,0.72c-1.16,0.74-1.84,1.61-2.21,2.08c-0.44,0.56-0.83,1.18-1.15,1.82
			c-0.1,0.18-0.23,0.43-0.36,0.73c-0.17,0.39-0.26,0.7-0.3,0.83c-0.02,0.07-0.08,0.28-0.14,0.57c-0.1,0.54-0.06,0.7,0.03,0.78
			c0.03,0.02,0.06,0.04,0.13,0.1c0.07,0.06,0.13,0.12,0.16,0.19c0.02,0.05,0.02,0.1,0.03,0.22c0.01,0.17-0.01,0.22,0.03,0.27
			c0.04,0.04,0.1,0.06,0.15,0.06c0.1-0.01,0.15-0.1,0.27-0.23c0.03-0.03,0.2-0.23,0.29-0.32c0.1-0.1,0.2-0.17,0.4-0.3
			c0.48-0.32,0.69-0.36,0.73-0.56c0-0.02,0.01-0.09,0.02-0.22c0-0.04,0.01-0.07,0.01-0.1c0.01-0.11,0.01-0.16,0.01-0.19
			c0.02-0.24,0.11-0.3,0.06-0.41c-0.03-0.05-0.08-0.08-0.11-0.1c-0.09-0.05-0.13-0.02-0.16-0.06c-0.05-0.06-0.02-0.17,0.02-0.24
			c0.04-0.07,0.11-0.1,0.14-0.12c0.09-0.05,0.18-0.11,0.25-0.17c0.1,0.3,0.21,0.6,0.33,0.89c0.09,0.22,0.18,0.44,0.28,0.65
			c-0.11,0.23-0.21,0.47-0.3,0.72l0.08,0.03c0.08-0.22,0.17-0.43,0.27-0.64c0.17,0.36,0.35,0.72,0.54,1.06
			c-0.01-0.01-0.02-0.01-0.02-0.01c-0.04-0.03-0.09-0.07-0.16-0.11c-0.01,0-0.07-0.05-0.13-0.08c-0.13-0.07-0.26-0.12-0.39-0.16
			c-0.09-0.03-0.2-0.07-0.35-0.1c-0.17-0.04-0.3-0.05-0.35-0.06c-0.26-0.02-0.64,0.07-0.92,0.3c-0.29,0.23-0.52,0.6-0.82,0.84
			c-0.03,0.02-0.09,0.07-0.17,0.07c-0.1-0.01-0.18-0.14-0.2-0.25c-0.05-0.19,0.02-0.47-0.02-0.56c-0.01-0.02-0.02-0.04-0.02-0.04
			c-0.01-0.01-0.04-0.08-0.12-0.13c-0.06-0.04-0.11-0.04-0.2-0.05c-0.12-0.01-0.25,0-0.25,0c-1.06,0.18-1.73,0.4-2.59,0.82
			c-0.52,0.25-0.54,0.65-0.06,0.97c0.13,0.07,0.24,0.19,0.31,0.33c0.07,0.14,0.11,0.29,0.1,0.45c0.01,0.71-0.04,1.41-0.08,2.12
			c0,0.11-0.04,0.22-0.08,0.33c-0.05,0.11-0.12,0.19-0.22,0.27c-0.12,0.09-0.3,0.33-0.28,0.54c0.02,0.22,0.27,0.35,0.42,0.44
			c0.22,0.12,0.42,0.16,0.68,0.19c0.69,0.08,1.22,0.04,1.48,0.01c0.39-0.04,0.62-0.09,0.85-0.19c0.22-0.09,0.44-0.19,0.5-0.38
			c0.06-0.17,0.02-0.34-0.16-0.6c-0.18-0.27-0.28-0.58-0.27-0.89c-0.02-0.64,0-1.28,0.06-1.91c0.07-0.41,0.24-0.59,0.6-0.62h0.02
			c0.16-0.02,0.33,0.01,0.46,0.11c0.13,0.1,0.23,0.24,0.25,0.4c0.22,0.89,0.22,1.82,0,2.71c-0.05,0.13-0.12,0.25-0.22,0.34
			c-0.07,0.06-0.11,0.13-0.14,0.23c-0.02,0.04-0.02,0.08-0.03,0.12c-0.01,0.07,0.01,0.13,0.02,0.16c0.01,0.04,0.04,0.15,0.13,0.24
			c0.06,0.06,0.12,0.08,0.24,0.13c0.06,0.02,0.23,0.09,0.49,0.13c0.03,0.01,0.06,0.01,0.1,0.01c0.23,0.03,0.42,0.03,0.67,0.04
			c0.33,0.01,0.57,0,0.65-0.01c0.2-0.01,0.36-0.03,0.48-0.04c0.37-0.04,0.56-0.09,0.72-0.15c0.01,0,0.16-0.07,0.3-0.18
			c0.03-0.03,0.07-0.06,0.09-0.11c0.03-0.05,0.05-0.1,0.06-0.16c0.02-0.11,0.02-0.22-0.01-0.31c-0.04-0.1-0.1-0.19-0.18-0.25
			c-0.12-0.12-0.22-0.27-0.28-0.42c-0.06-0.16-0.08-0.33-0.08-0.49c0-0.33,0.02-1.62-0.13-2.59c-0.02-0.12-0.09-0.54-0.28-0.89
			c0.29-0.67,0.65-1.32,1.05-1.91c0.16,0.21,0.32,0.43,0.49,0.64c0.24,0.31,0.48,0.62,0.73,0.93c-0.21,0.31-0.41,0.63-0.6,0.96
			l0.08,0.04c0.18-0.32,0.38-0.63,0.58-0.93c0.1,0.12,0.19,0.24,0.29,0.37c-0.03,0.03-0.05,0.06-0.08,0.1
			c-0.12,0.16-0.19,0.3-0.27,0.44c-0.16,0.3-0.46,0.88-0.47,1.66c-0.01,0.83,0.31,1.44,0.45,1.68c0.18,0.32,0.74,1.33,1.83,1.58
			c0.2,0.05,0.66,0.12,1.16-0.02c0.46-0.13,1.05-0.47,1.12-0.51c0,0,0,0,0,0c0.04-0.03,0.16-0.13,0.26-0.1
			c0.09,0.03,0.12,0.15,0.15,0.25c0.06,0.18,0.02,0.27,0.09,0.35c0.05,0.06,0.14,0.08,0.19,0.08c0.21,0,0.43-0.01,0.64-0.01
			c0.06,0,0.15-0.01,0.26-0.02c0.33-0.03,0.72-0.1,1.17-0.25c0.31-0.1,0.46-0.17,0.63-0.29c0.39-0.27,0.42-0.68,0.05-0.93
			c-0.14-0.1-0.27-0.24-0.34-0.4c-0.07-0.16-0.1-0.34-0.07-0.51v-2.78l1.27-2.79c0.31,0.38,0.61,0.78,0.89,1.19
			c-0.22,0.57-0.49,1.13-0.81,1.65l0.08,0.05c0.32-0.51,0.58-1.05,0.8-1.61c0.17,0.25,0.33,0.51,0.48,0.77
			c-0.12,0.08-0.29,0.2-0.42,0.32c-0.07,0.07-0.13,0.14-0.13,0.14c-0.05,0.06-0.1,0.13-0.14,0.19c-0.1,0.13-0.16,0.29-0.16,0.45
			c0,0.17,0.06,0.33,0.16,0.45c0.11,0.13,0.25,0.22,0.42,0.25c0.16,0.04,0.34,0.01,0.48-0.06c0.35-0.14,0.64-0.4,0.84-0.72
			c0.22-0.29,0.42-0.66,0.87-0.54s0.37,0.55,0.45,0.88c0,0.1,0,0.19,0,0.29c0.04,0.34-0.12,0.49-0.46,0.49
			c-0.47-0.01-0.95,0.04-1.41,0.16c-0.39,0.11-0.76,0.29-1.07,0.54c-0.23,0.18-0.41,0.42-0.52,0.7c-0.11,0.28-0.14,0.58-0.11,0.87
			c0.04,0.29,0.16,0.57,0.34,0.8c0.26,0.33,0.57,0.46,0.7,0.52c0.19,0.08,0.38,0.11,0.57,0.14c0.11,0.02,0.27,0.04,0.47,0.04
			c0.16,0,0.39-0.02,0.66-0.09c0.13-0.05,0.28-0.1,0.43-0.18c0.2-0.1,0.37-0.2,0.51-0.3c0.01-0.01,0.06-0.04,0.08-0.05
			c0.02-0.01,0.04-0.01,0.06-0.02c0.04-0.01,0.07,0,0.09,0c0,0,0.05,0.01,0.1,0.05c0,0,0.01,0.01,0.02,0.01
			c0.01,0.01,0.02,0.02,0.03,0.03c0.01,0.01,0.02,0.02,0.02,0.02c0.03,0.03,0.13,0.13,0.19,0.18c0.14,0.12,0.36,0.23,0.39,0.24
			c0.13,0.04,0.31,0.09,0.54,0.09c0.33,0,0.58-0.09,0.73-0.16c0.08-0.03,0.2-0.08,0.33-0.15c0.14-0.08,0.34-0.2,0.53-0.42
			c0.14-0.17,0.24-0.39,0.3-0.6C55.73,23.76,55.72,23.54,55.5,23.54z M49.95,16.1c0.1,0.02,0.21-0.07,0.36,0
			c0.18,0.09,0.25,0.33,0.27,0.39c0.01,0.03,0.02,0.06,0.02,0.08c0,0.35-0.03,0.71-0.08,1.06c-0.21-0.32-0.42-0.63-0.65-0.94
			C49.91,16.5,49.93,16.3,49.95,16.1z M49.52,14.98c0.16,0.18,0.22,0.37,0.24,0.43c0.11,0.34,0.02,0.54,0.11,0.64
			c-0.02,0.18-0.04,0.37-0.07,0.55c-0.22-0.29-0.44-0.57-0.68-0.85l0.37-0.81C49.5,14.95,49.51,14.97,49.52,14.98z M49.23,14.73
			c0.09,0.08,0.14,0.11,0.19,0.15l-0.36,0.8c-0.06-0.07-0.13-0.15-0.19-0.22c-0.17-0.19-0.35-0.39-0.56-0.62l0.43-0.75
			C49,14.31,48.94,14.46,49.23,14.73z M48.66,14.04l-0.42,0.73c-0.15-0.16-0.31-0.32-0.48-0.49c0.19-0.13,0.39-0.26,0.59-0.39
			C48.47,13.9,48.57,13.96,48.66,14.04z M48.19,14.85l-0.74,1.29c-0.3-0.3-0.62-0.61-0.98-0.91c0.39-0.31,0.8-0.6,1.21-0.89
			C47.87,14.51,48.04,14.69,48.19,14.85z M47.64,13.57c0.06,0.02,0.14,0.05,0.22,0.12c0.1,0.09,0.11,0.15,0.2,0.19
			c0.04,0.02,0.08,0.02,0.11,0.02c-0.16,0.11-0.32,0.21-0.48,0.32c-0.19-0.18-0.39-0.36-0.6-0.54c0.14-0.06,0.29-0.12,0.44-0.17
			C47.56,13.54,47.6,13.56,47.64,13.57z M46.58,13.13c0.01-0.09,0.09-0.14,0.1-0.15c0.09-0.06,0.19-0.04,0.33,0
			c0.18,0.04,0.4,0.1,0.44,0.24c0.02,0.08-0.03,0.13,0.01,0.21c0,0,0,0,0,0.01c-0.15,0.06-0.3,0.12-0.45,0.18
			c-0.11-0.09-0.23-0.19-0.35-0.28C46.63,13.27,46.56,13.22,46.58,13.13z M46.36,13.65c0.17-0.13,0.26-0.17,0.29-0.21
			c0.09,0.07,0.18,0.14,0.27,0.21c-0.27,0.12-0.54,0.24-0.81,0.37c0-0.02,0-0.04,0-0.05C46.11,13.92,46.13,13.84,46.36,13.65z
			 M45.93,14.23c0.08,0,0.12,0,0.14-0.02c0.02-0.02,0.03-0.05,0.04-0.09c0.29-0.14,0.59-0.28,0.89-0.41
			c0.22,0.19,0.43,0.37,0.62,0.55c-0.41,0.29-0.82,0.58-1.21,0.89c-0.28-0.24-0.59-0.48-0.91-0.72c0.14-0.08,0.27-0.15,0.41-0.22
			C45.91,14.23,45.92,14.23,45.93,14.23z M46.33,15.22c-0.14,0.11-0.27,0.21-0.4,0.32c-0.22,0.18-0.44,0.37-0.66,0.56
			c-0.35-0.3-0.71-0.59-1.08-0.85c0.39-0.27,0.8-0.52,1.22-0.76C45.74,14.73,46.04,14.98,46.33,15.22z M45.49,14.28
			c0.02,0.01,0.05,0.02,0.08,0.03c-0.05,0.03-0.1,0.06-0.15,0.08c-0.13-0.09-0.26-0.18-0.39-0.27
			C45.18,14.17,45.34,14.21,45.49,14.28z M43.93,13.82c0.11,0,0.25,0,0.73,0.18c0.02,0.01,0.03,0.01,0.05,0.02
			c0.21,0.14,0.42,0.28,0.62,0.42c-0.42,0.23-0.82,0.49-1.21,0.76c-0.57-0.4-1.09-0.71-1.52-0.95c0.29-0.17,0.59-0.33,0.89-0.48
			c0.01,0,0.01,0.01,0.01,0.01c0.08,0.07,0.2,0.05,0.23,0.05C43.78,13.82,43.85,13.82,43.93,13.82z M41,13.57
			c0.22,0.09,0.43,0.19,0.64,0.29c0.2,0.09,0.46,0.22,0.78,0.39c-0.03,0.02-0.07,0.04-0.1,0.06c-0.46,0.29-0.88,0.59-1.26,0.9
			c-0.41-0.3-0.83-0.58-1.27-0.85C40.17,14.06,40.58,13.8,41,13.57z M39.71,14.31c-0.36-0.22-0.74-0.43-1.15-0.63
			c-0.02-0.01-0.03-0.02-0.05-0.02c0.31-0.24,0.64-0.46,0.97-0.66C39.5,13,39.52,13,39.54,13.01c0.46,0.16,0.92,0.33,1.36,0.52
			C40.48,13.76,40.09,14.02,39.71,14.31z M41.68,13.78c-0.19-0.09-0.38-0.18-0.58-0.26c0.01,0,0.02-0.01,0.03-0.01
			c0.36-0.19,0.74-0.35,1.13-0.49c0.01,0.01,0.01,0.01,0.01,0.01c0.14,0.13,0.28,0.12,0.64,0.2c0.1,0.02,0.59,0.11,0.68,0.27
			c0.01,0.02,0.03,0.05,0.02,0.08c-0.02,0.06-0.12,0.07-0.14,0.11c-0.32,0.16-0.64,0.33-0.95,0.52
			C42.17,14.02,41.89,13.88,41.68,13.78z M42.43,12.52c-0.02,0.05-0.04,0.1-0.09,0.16c-0.42-0.17-0.86-0.33-1.31-0.48
			c0.29-0.12,0.59-0.23,0.89-0.33c0,0.06,0.06,0.11,0.09,0.13c0.18,0.11,0.37,0.02,0.46,0.11C42.51,12.16,42.54,12.26,42.43,12.52z
			 M42.27,12.74c-0.06,0.04-0.1,0.06-0.12,0.1c-0.01,0.03,0.01,0.07,0.03,0.11c-0.38,0.14-0.75,0.3-1.1,0.48
			c-0.03,0.02-0.06,0.03-0.09,0.05c-0.46-0.2-0.94-0.38-1.42-0.54c0.34-0.2,0.69-0.39,1.05-0.56c0.09-0.04,0.19-0.08,0.28-0.12
			C41.39,12.39,41.84,12.56,42.27,12.74z M40.59,12.29c-0.39,0.18-0.76,0.38-1.12,0.6c-0.38-0.13-0.78-0.24-1.17-0.35
			c0.07-0.05,0.14-0.09,0.21-0.14c0.3-0.19,0.62-0.36,0.94-0.52c0.45,0.09,0.89,0.2,1.33,0.32C40.72,12.24,40.65,12.26,40.59,12.29z
			 M39.37,12.96c-0.33,0.2-0.64,0.42-0.95,0.65c-0.32-0.16-0.65-0.3-0.99-0.44c0.25-0.19,0.51-0.38,0.77-0.55
			C38.59,12.71,38.98,12.83,39.37,12.96z M38.34,13.67c-0.24,0.18-0.47,0.38-0.7,0.58c-0.24-0.2-0.48-0.4-0.71-0.59
			c0-0.02,0.01-0.05,0.01-0.08c0.14-0.12,0.27-0.23,0.42-0.34C37.69,13.37,38.02,13.51,38.34,13.67z M37.65,14.36
			c0.35,0.29,0.69,0.59,1.03,0.89c-0.02,0.02-0.05,0.05-0.07,0.07c-0.29,0.29-0.57,0.59-0.82,0.92c-0.28-0.39-0.57-0.78-0.84-1.18
			l0.02-0.03C37.18,14.8,37.41,14.58,37.65,14.36z M37.71,14.3c0.23-0.21,0.47-0.4,0.72-0.59c0.03,0.01,0.06,0.03,0.09,0.04
			c0.4,0.2,0.77,0.4,1.12,0.61c-0.32,0.25-0.62,0.52-0.9,0.82C38.4,14.89,38.06,14.59,37.71,14.3z M39.72,14.42
			c0.45,0.27,0.86,0.56,1.27,0.85c-0.41,0.34-0.77,0.68-1.08,1c-0.24-0.23-0.48-0.45-0.72-0.67c-0.13-0.12-0.26-0.23-0.39-0.35
			C39.09,14.95,39.39,14.67,39.72,14.42z M41.06,15.32c0.35,0.25,0.69,0.52,1.05,0.79c0,0.01,0,0.01,0,0.01h0.02
			c0.1,0.08,0.2,0.15,0.3,0.23c0.04,0.03,0.08,0.06,0.12,0.09c-0.43,0.38-0.83,0.79-1.21,1.21c-0.44-0.45-0.89-0.9-1.35-1.33
			C40.29,16.01,40.65,15.66,41.06,15.32z M42.48,16.28c-0.46-0.36-0.9-0.69-1.34-1.02c0.37-0.3,0.78-0.59,1.23-0.88
			c0.05-0.03,0.1-0.06,0.15-0.09c0.43,0.23,0.96,0.55,1.53,0.95c-0.49,0.34-0.96,0.72-1.42,1.12c-0.01,0.01-0.01,0.01-0.02,0.02
			C42.56,16.35,42.52,16.32,42.48,16.28z M43.73,10.58c0.02,0.02,0.04,0.05,0.04,0.09c-0.01,0.1-0.16,0.17-0.23,0.2
			c-0.07,0.03-0.14,0.07-0.23,0.07c-0.07,0-0.06-0.02-0.2-0.05c-0.13-0.02-0.14,0-0.23-0.03c-0.04-0.01-0.06-0.02-0.09-0.01
			c-0.05,0.02-0.04,0.07-0.1,0.11C42.63,11,42.61,10.97,42.56,11c-0.07,0.04-0.03,0.11-0.1,0.19c-0.01,0.01-0.02,0.02-0.04,0.03
			c-0.13-0.04-0.26-0.07-0.4-0.1c-0.04-0.05-0.12-0.08-0.15-0.09c-0.05-0.02-0.1-0.03-0.15-0.03C42.38,10.8,43.05,10.66,43.73,10.58
			z M41.46,10.91c0.15-0.17,0.91-0.22,1.52-0.31c0.03,0,0.1-0.02,0.19-0.03c0.08-0.01,0.15-0.02,0.22-0.03
			c-0.66,0.1-1.31,0.25-1.94,0.45c0,0-0.01,0-0.01-0.01C41.42,10.95,41.45,10.92,41.46,10.91z M40.44,11.68
			c0.02-0.02,0.09-0.12,0.2-0.23c0.03-0.03,0.07-0.07,0.13-0.07c0.01,0,0.05,0,0.08,0.04c0.02,0.02,0.02,0.04,0.02,0.06
			c0,0.08-0.05,0.1-0.04,0.16c0.01,0.02,0.02,0.04,0.04,0.06c0.04,0.04,0.1,0.05,0.13,0.06c0.03,0.01,0.09,0.01,0.17-0.01
			c0.13-0.04,0.12-0.11,0.22-0.13c0.1-0.02,0.14,0.05,0.27,0.03c0.03-0.01,0.1-0.02,0.16-0.08c0.01-0.01,0.02-0.02,0.03-0.03
			c0.03-0.06,0.05-0.1,0.05-0.12c0.03-0.1,0.11-0.14,0.14-0.2c0.1,0.03,0.2,0.05,0.3,0.08c0,0,0,0,0,0
			c-0.03,0.04-0.04,0.09-0.04,0.13c0.01,0.04,0,0.07-0.01,0.1c-0.05,0.11-0.16,0.16-0.25,0.21c-0.38,0.12-0.76,0.26-1.12,0.42
			c-0.31-0.09-0.62-0.18-0.94-0.25C40.12,11.89,40.32,11.84,40.44,11.68z M38.67,11.43c0.04,0.07,0.19,0.06,0.28,0.05
			c0.14-0.03,0.14-0.08,0.4-0.2c0.1-0.05,0.22-0.1,0.33-0.07c0.02,0.01,0.07,0.02,0.1,0.06c0.02,0.04,0.01,0.08,0.01,0.09
			c-0.02,0.06-0.07,0.09-0.08,0.09c-0.03,0.02-0.08,0.04-0.12,0.1c-0.04,0.06-0.07,0.14-0.06,0.21c-0.03,0.01-0.06,0.03-0.08,0.04
			c-0.37-0.07-0.75-0.13-1.13-0.17C38.43,11.55,38.55,11.49,38.67,11.43z M38.01,12.08c0.02-0.01,0.18-0.15,0.25-0.29
			c0.01-0.01,0.03-0.05,0.03-0.09c0.34,0.04,0.68,0.09,1.02,0.15c-0.29,0.15-0.57,0.31-0.84,0.47c-0.1,0.06-0.19,0.12-0.28,0.18
			c-0.17-0.04-0.33-0.08-0.5-0.12C37.7,12.31,37.8,12.25,38.01,12.08z M37.03,12.94c0.14-0.06,0.12-0.21,0.25-0.3
			c0.16-0.12,0.38-0.03,0.42-0.12c0-0.01,0-0.02,0-0.02c0.13,0.03,0.26,0.06,0.38,0.09c-0.26,0.17-0.51,0.35-0.75,0.54
			c-0.13-0.05-0.26-0.1-0.39-0.15C36.98,12.96,37.01,12.95,37.03,12.94z M36.85,13.14c0-0.01,0-0.01,0-0.01
			c0.01-0.02,0.02-0.05,0.03-0.08c0.12,0.05,0.25,0.09,0.37,0.14c-0.12,0.09-0.23,0.19-0.35,0.28c-0.01-0.02-0.02-0.03-0.04-0.07
			C36.83,13.29,36.83,13.19,36.85,13.14z M36.74,13.77c0.02,0.01,0.07,0.03,0.12,0.01c0.02-0.01,0.03-0.02,0.04-0.04
			c0.23,0.19,0.46,0.37,0.68,0.56c-0.24,0.21-0.47,0.43-0.69,0.67l-0.01,0.01c-0.2-0.28-0.39-0.56-0.58-0.83
			c0.14-0.13,0.27-0.27,0.42-0.39C36.73,13.76,36.73,13.77,36.74,13.77z M36.12,13.66c0.01-0.02,0.04-0.03,0.11-0.04
			c0.15-0.01,0.28-0.04,0.36,0.03c0.01,0.01,0.03,0.02,0.06,0.05c-0.14,0.12-0.27,0.25-0.4,0.37c-0.05-0.07-0.1-0.14-0.15-0.21
			c0.01-0.01,0.02-0.01,0.02-0.02C36.15,13.79,36.08,13.72,36.12,13.66z M35.04,16.22c0,0.01-0.01,0.02-0.01,0.02
			c-0.01,0.01-0.04,0.02-0.05,0.02c-0.01,0-0.04-0.01-0.05-0.02c-0.03-0.08-0.08-0.18-0.17-0.23c0,0,0,0,0,0
			c0.04-0.06,0.08-0.12,0.12-0.18c0,0.01,0.01,0.02,0.01,0.02c0.02,0.03,0.02,0.03,0.1,0.13c0.06,0.08,0.07,0.1,0.08,0.13
			C35.07,16.16,35.06,16.2,35.04,16.22z M35.48,14.57c-0.02,0.01-0.03,0.02-0.04,0.03c-0.09,0.1-0.1,0.18-0.15,0.28
			c-0.05,0.11-0.07,0.07-0.21,0.26c-0.03,0.04-0.09,0.13-0.16,0.26c-0.06,0.13-0.1,0.2-0.08,0.3c0,0.01,0,0.02,0.01,0.04
			c-0.06,0.09-0.12,0.17-0.18,0.26c-0.04,0-0.08,0-0.11-0.03c-0.04-0.03-0.06-0.11-0.01-0.3c0.27-0.52,0.58-1.02,0.93-1.49
			c0.02,0.12,0.05,0.24,0.07,0.36C35.53,14.54,35.5,14.55,35.48,14.57z M35.79,14.55C35.79,14.55,35.79,14.55,35.79,14.55
			c-0.04-0.03-0.1-0.03-0.15-0.03c-0.03-0.15-0.06-0.29-0.09-0.44c0.03-0.04,0.06-0.08,0.09-0.13c0.02-0.03,0.05-0.06,0.08-0.1
			c0.13,0.02,0.23,0.03,0.29,0.03c0.06,0.08,0.12,0.17,0.17,0.25C36.05,14.28,35.92,14.41,35.79,14.55z M36.04,15.58
			c-0.06-0.04-0.1-0.1-0.11-0.16c-0.01-0.03-0.01-0.06-0.01-0.09c0-0.05,0.02-0.08,0.04-0.1c0.09-0.15,0.37-0.35,0.34-0.46
			c-0.02-0.06-0.13-0.1-0.2-0.1c-0.11-0.01-0.18,0.05-0.23,0c-0.02-0.01-0.02-0.03-0.02-0.05c0,0,0.01-0.01,0.01-0.02
			c0.12-0.13,0.25-0.27,0.38-0.39c0.19,0.28,0.39,0.56,0.59,0.84l-0.29,0.38c-0.01-0.03-0.01-0.06-0.03-0.09
			c0-0.01-0.01-0.02-0.01-0.02c-0.02-0.03-0.05-0.05-0.09-0.05c-0.03,0.01-0.05,0.04-0.07,0.07c-0.01,0.01-0.02,0.03-0.03,0.06
			c-0.01,0.02-0.01,0.02-0.01,0.03c-0.01,0.01-0.03,0.06-0.07,0.09c-0.03,0.03-0.07,0.07-0.12,0.07
			C36.08,15.6,36.06,15.59,36.04,15.58z M36.49,17.3c-0.12-0.3-0.24-0.61-0.34-0.92c0.07-0.07,0.13-0.15,0.17-0.2
			c0.06-0.07,0.13-0.16,0.18-0.3c0,0,0.05-0.14,0.04-0.32l0.33-0.43c0.28,0.39,0.56,0.79,0.84,1.18c-0.11,0.15-0.22,0.29-0.32,0.44
			c-0.24,0.36-0.46,0.74-0.65,1.13C36.66,17.69,36.57,17.49,36.49,17.3z M38.75,17.69c-0.41,0.59-0.76,1.23-1.05,1.9
			c-0.02-0.03-0.05-0.07-0.07-0.1c-0.04-0.05-0.09-0.1-0.13-0.14c-0.25-0.44-0.49-0.9-0.7-1.36c0.2-0.41,0.42-0.8,0.68-1.18
			c0.1-0.14,0.2-0.28,0.31-0.42C38.1,16.82,38.42,17.26,38.75,17.69C38.75,17.69,38.75,17.69,38.75,17.69z M38.8,17.61
			c-0.33-0.43-0.65-0.86-0.97-1.3c0.26-0.33,0.53-0.64,0.83-0.93c0.02-0.03,0.05-0.05,0.07-0.07c0.13,0.12,0.26,0.23,0.39,0.35
			c0.24,0.22,0.48,0.44,0.72,0.67C39.38,16.83,39.03,17.28,38.8,17.61z M40.07,19.26c-0.24-0.3-0.47-0.61-0.71-0.91
			c-0.17-0.22-0.34-0.44-0.5-0.67c0.23-0.33,0.58-0.79,1.06-1.3c0.46,0.43,0.91,0.88,1.35,1.33C40.84,18.21,40.44,18.73,40.07,19.26
			z M41.87,18.85c-0.22,0.06-0.9,0.26-1.44,0.86c-0.1-0.12-0.2-0.25-0.3-0.38c0.37-0.54,0.77-1.06,1.2-1.55
			c0.32,0.32,0.63,0.65,0.94,0.98C42.13,18.79,42,18.81,41.87,18.85z M42.38,18.76c-0.32-0.35-0.65-0.69-0.99-1.03
			c0.38-0.43,0.79-0.84,1.22-1.22c0.3,0.23,0.59,0.47,0.88,0.71c-0.01,0.01-0.02,0.03-0.03,0.04c-0.04,0.08-0.04,0.19-0.04,0.24
			c0,0.06,0,0.14,0.03,0.22c0.01,0.03,0.03,0.05,0.04,0.08l-0.93,0.94C42.5,18.74,42.44,18.75,42.38,18.76z M43.56,17.87
			c0.07,0.07,0.19,0.13,0.39,0.2c0.36,0.13,0.48,0.46,0.36,0.87c-0.04,0.13-0.08,0.17-0.11,0.18c-0.09,0.04-0.18-0.02-0.2-0.04
			c-0.19-0.1-0.45-0.22-0.78-0.29c-0.17-0.03-0.34-0.05-0.51-0.05L43.56,17.87z M44.22,23.1c-0.08,0.33-0.23,0.63-0.62,0.63
			c-0.16,0.01-0.33-0.02-0.46-0.12c-0.13-0.1-0.23-0.23-0.28-0.39c-0.17-0.43-0.24-0.9-0.22-1.38c0.02-0.47,0.16-0.93,0.37-1.34
			c0.06-0.13,0.17-0.24,0.29-0.3c0.12-0.06,0.27-0.08,0.41-0.06c0.13,0.02,0.25,0.08,0.35,0.18c0.08,0.1,0.16,0.22,0.17,0.35
			c0.08,0.36,0.12,0.75,0.11,1.12C44.37,22.24,44.33,22.67,44.22,23.1z M44.53,16.78c-0.02,0.01-0.05,0.02-0.07,0.02
			c-0.19,0.06-0.24,0.07-0.47,0.15c-0.23,0.08-0.35,0.13-0.43,0.19c-0.29-0.24-0.58-0.47-0.88-0.71c0,0,0,0,0.01-0.01
			c0.46-0.41,0.94-0.78,1.43-1.13c0.37,0.27,0.74,0.56,1.09,0.86C44.97,16.37,44.75,16.57,44.53,16.78z M45.45,16.49
			c-0.29,0.06-0.46,0.13-0.72,0.23c0.18-0.17,0.36-0.33,0.54-0.49c0.09,0.08,0.19,0.16,0.28,0.25
			C45.51,16.47,45.49,16.48,45.45,16.49z M46.5,16.38c-0.27,0-0.5,0.02-0.85,0.07c-0.11-0.1-0.21-0.19-0.32-0.29
			c0.21-0.19,0.43-0.37,0.65-0.55c0.14-0.11,0.28-0.22,0.42-0.33c0.37,0.31,0.7,0.63,1,0.94l-0.31,0.53
			C47.06,16.42,46.78,16.38,46.5,16.38z M47.13,19.9v-2.37c-0.01-0.13-0.01-0.25-0.02-0.38c0-0.08,0-0.16-0.01-0.25l0.36-0.63
			c0.28,0.29,0.54,0.57,0.76,0.83c0.04,0.04,0.07,0.09,0.11,0.13L47.13,19.9z M48.38,17.16c-0.03-0.03-0.05-0.07-0.08-0.1
			c-0.23-0.27-0.49-0.56-0.78-0.86l0.74-1.29c0.2,0.21,0.38,0.41,0.54,0.6c0.07,0.08,0.14,0.17,0.22,0.25L48.38,17.16z M49.33,18.42
			c-0.28-0.41-0.57-0.8-0.88-1.18l0.64-1.4c0.24,0.29,0.48,0.58,0.7,0.88c-0.09,0.51-0.21,1-0.38,1.49
			C49.38,18.28,49.35,18.35,49.33,18.42z M49.94,19.31c-0.01,0-0.02,0.01-0.04,0.03c-0.16-0.28-0.34-0.56-0.52-0.83
			c0.03-0.09,0.07-0.18,0.1-0.27c0.16-0.46,0.28-0.94,0.37-1.42c0.23,0.31,0.44,0.63,0.65,0.95c-0.02,0.11-0.04,0.22-0.06,0.33
			c-0.08,0.38-0.18,0.74-0.31,1.11C50.08,19.24,50.01,19.27,49.94,19.31z M51.06,18.84c-0.19,0.05-0.33,0.1-0.47,0.16
			c-0.1,0.04-0.21,0.09-0.34,0.15c0.12-0.34,0.21-0.68,0.28-1.03c0.02-0.08,0.03-0.16,0.04-0.23c0.18,0.29,0.35,0.58,0.51,0.87
			C51.08,18.79,51.07,18.81,51.06,18.84z M51.13,18.56c0,0.02-0.01,0.04-0.01,0.07c-0.17-0.3-0.34-0.59-0.52-0.88
			c0.05-0.31,0.08-0.62,0.09-0.93c0,0.01,0.01,0.02,0.01,0.03c0.04,0.06,0.07,0.08,0.1,0.13c0.14,0.17,0.16,0.37,0.18,0.55
			c0.03,0.32-0.04,0.42,0.06,0.55c0.02,0.03,0.06,0.07,0.12,0.11C51.17,18.31,51.16,18.44,51.13,18.56z M51.51,18.77
			c-0.08,0.01-0.18,0.02-0.29,0.04c-0.01-0.02-0.02-0.04-0.03-0.06c0.01-0.06,0.03-0.11,0.04-0.17c0.02-0.12,0.04-0.23,0.04-0.35
			c0.08,0.03,0.15,0.03,0.17,0.03c0.02,0,0.03,0,0.04,0c0.02,0.11,0.03,0.23,0.04,0.34C51.51,18.65,51.51,18.71,51.51,18.77z
			 M51.74,23.89c-0.3-0.01-0.49-0.29-0.49-0.68c-0.01-0.19,0.05-0.37,0.18-0.52c0.13-0.14,0.3-0.23,0.49-0.24
			c0.28,0.01,0.34,0.14,0.34,0.64C52.23,23.65,52.04,23.91,51.74,23.89z"/>
		<path class="st0" d="M16.21,26.01c-0.3,0-0.57-0.01-1.02-0.02c-0.57-0.02-0.95-0.03-1.38-0.06c-0.63-0.05-1.17-0.09-1.82-0.25
			c-0.4-0.1-0.92-0.26-1.42-0.47c-0.07,0.27-0.22,0.44-0.29,0.52C10.15,25.85,9.92,26,9.55,26C9.48,26,9.41,26,9.36,25.99
			c-0.53-0.06-1-0.22-1.05-0.24c-0.11-0.04-0.4-0.07-0.83-0.12l-0.12-0.01c-0.33-0.04-0.84-0.1-1.41-0.1
			c-0.19,0-0.38,0.01-0.56,0.02c-0.07,0.01-0.14,0.01-0.21,0.01c-0.33,0-0.67-0.06-0.99-0.18c-0.24-0.08-0.47-0.22-0.65-0.41
			c-0.18-0.18-0.31-0.39-0.4-0.61c-0.01,0-0.02,0-0.03-0.01c-0.28,0.09-0.57,0.13-0.86,0.13c-0.25,0-0.5-0.03-0.74-0.09
			c-0.63-0.15-1.08-0.54-1.23-1.06c-0.13-0.46,0-0.94,0.34-1.35c-0.59-1.6-0.72-3.35-0.39-5.07c0.13-0.67,0.39-1.29,0.76-1.84
			c0.45-0.67,0.97-1.08,1.22-1.27l0.02-0.02c0.48-0.38,0.99-0.86,1.5-1.42l0.06-0.13l0.02-0.04c0.05-0.08,0.09-0.17,0.13-0.26
			c0.1-0.24,0.15-0.5,0.15-0.77l0-0.03l0-0.03C4.16,10.2,4.54,9.4,5.14,8.81c0.64-0.67,1.21-1.43,1.7-2.24
			c0.37-0.64,0.89-1.21,1.51-1.66C8.96,4.47,9.68,4.15,10.43,4l0.02,0c0.22-0.04,0.43-0.06,0.64-0.09c0.07-0.09,0.15-0.18,0.24-0.25
			c0.2-0.19,0.42-0.29,0.58-0.36l0.02-0.01l0.02-0.01c0.16-0.05,0.37-0.11,0.61-0.11c0.03,0,0.06,0,0.09,0
			c0.24,0,0.48,0.06,0.7,0.16l0.02,0.01c0.08,0.04,0.18,0.09,0.29,0.17l0.04,0.02l0.03,0.03c0.35,0.3,0.8,0.47,1.26,0.47
			c0.03,0,0.07,0,0.1,0l0.01,0c2.71-0.09,5.36-0.23,7.36-0.34c0.38-0.02,0.75-0.03,1.09-0.03c2.42,0,4.32,0.52,5.98,1.62
			c1.66,1.11,2.6,2.44,2.89,4.08c0.24,1.18,0.16,2.4-0.25,3.53c-0.4,1.13-1.12,2.13-2.06,2.89c-1.58,1.38-3.61,2.22-5.72,2.35
			c-0.53,0.05-1.08,0.08-1.63,0.08c0,0,0,0,0,0c-0.87,0-1.76-0.06-2.65-0.19c0.02,0.36,0.01,0.71,0.01,1.06
			c-0.01,0.5-0.02,0.97,0.05,1.42l0,0.02l0,0.02c0.01,0.15,0.07,0.3,0.16,0.44c0.11,0.13,0.23,0.22,0.37,0.28l0.02,0.01
			c0.4,0.17,0.79,0.38,1.17,0.63c0.55,0.36,0.86,0.84,0.87,1.35c0.02,0.8-0.65,1.27-1.1,1.58c-0.52,0.36-1,0.51-1.42,0.64
			c-0.41,0.12-0.77,0.19-1.43,0.3c-0.34,0.06-0.57,0.1-0.88,0.13C17.34,25.99,16.88,26,16.51,26C16.4,26,16.3,26.01,16.21,26.01z"/>
		<path class="st0" d="M31.52,12.66c0.36-1.01,0.43-2.11,0.22-3.16c-0.28-1.6-1.27-2.74-2.58-3.62c-2.03-1.35-4.29-1.6-6.64-1.47
			c-2.45,0.13-4.9,0.25-7.37,0.34c-0.69,0.04-1.35-0.19-1.87-0.64c-0.07-0.05-0.14-0.08-0.22-0.12c-0.13-0.06-0.28-0.1-0.43-0.1
			c-0.16-0.01-0.3,0.02-0.45,0.07C12.04,4.02,11.9,4.1,11.79,4.2c-0.04,0.03-0.1,0.08-0.16,0.17c-0.05,0.08-0.07,0.16-0.07,0.21
			c-0.33,0.04-0.65,0.06-0.99,0.12c-0.65,0.13-1.27,0.4-1.8,0.78C8.25,5.87,7.79,6.36,7.46,6.93C6.94,7.79,6.34,8.58,5.65,9.31
			c-0.49,0.48-0.8,1.12-0.86,1.81c0,0.27-0.04,0.64-0.2,1.04c-0.05,0.13-0.11,0.25-0.17,0.35c-0.05,0.12-0.08,0.21-0.08,0.21
			c-0.7,0.78-1.26,1.27-1.67,1.59c-0.21,0.17-0.69,0.53-1.1,1.13c-0.43,0.64-0.59,1.24-0.65,1.58c-0.31,1.62-0.18,3.29,0.41,4.83
			c0.06,0.17,0.11,0.28-0.07,0.46C0.7,22.86,0.9,23.5,1.67,23.68c0.42,0.11,0.86,0.1,1.27-0.04c0.24-0.08,0.51,0.07,0.7,0.1
			c0.19,0.02,0.12,0.22,0.16,0.33c0.05,0.14,0.13,0.28,0.24,0.39c0.11,0.11,0.24,0.19,0.39,0.24c0.29,0.11,0.6,0.16,0.9,0.13
			c0.94-0.07,1.8,0.05,2.23,0.1c0.53,0.06,0.8,0.09,0.98,0.16c0.02,0.01,0.44,0.15,0.9,0.21c0.08,0.01,0.25,0.03,0.34-0.07
			c0.03-0.03,0.1-0.12,0.11-0.24c0,0,0-0.01,0-0.02c0-0.08-0.02-0.21-0.27-0.47c-0.16-0.16-0.27-0.22-0.52-0.4
			c-0.18-0.13-0.67-0.44-0.65-0.52c0.01-0.04,0.07-0.06,0.15-0.08c0.07-0.02,0.2-0.06,0.35-0.04c0.23,0.04,0.39,0.22,0.43,0.27
			c0.4,0.44,1.78,1.02,2.79,1.27c0.58,0.14,1.06,0.18,1.7,0.23c0.41,0.03,0.75,0.04,1.35,0.06c0.57,0.02,0.86,0.03,1.28,0.02
			c0.38-0.01,0.81-0.02,1.38-0.08c0.3-0.04,0.51-0.07,0.84-0.13c0.66-0.11,0.98-0.17,1.35-0.28c0.4-0.12,0.79-0.24,1.22-0.54
			c0.36-0.25,0.81-0.56,0.79-0.98c-0.01-0.33-0.3-0.61-0.55-0.78c-0.33-0.22-0.68-0.41-1.05-0.57c-0.28-0.11-0.51-0.29-0.69-0.52
			c-0.17-0.24-0.28-0.52-0.3-0.81c-0.13-0.88-0.01-1.76-0.07-2.64c-0.04-0.66,0.35-0.74,0.76-0.66c1.39,0.21,2.79,0.25,4.17,0.12
			c1.97-0.12,3.84-0.88,5.32-2.18C30.52,14.57,31.16,13.67,31.52,12.66z M4.35,12.8c0-0.03-0.01-0.05-0.01-0.08
			C4.34,12.74,4.35,12.76,4.35,12.8L4.35,12.8z M11.84,4.63c0,0-0.01,0-0.01,0C11.84,4.63,11.84,4.63,11.84,4.63
			C11.84,4.63,11.84,4.63,11.84,4.63z"/>
		<path class="st0" d="M35.41,10.19c-0.19,0-0.36-0.07-0.5-0.19c-0.06-0.05-0.11-0.11-0.13-0.14c-0.04-0.06-0.06-0.11-0.08-0.13
			c-0.01-0.03-0.03-0.07-0.05-0.13c-0.02-0.07-0.04-0.15-0.04-0.22l0-0.08l0.01-0.08c0.01-0.08,0.04-0.19,0.12-0.31
			c0.17-0.26,0.44-0.32,0.53-0.34c0.04-0.01,0.06-0.02,0.07-0.02c0.02-0.01,0.03-0.01,0.04-0.01c0.02-0.01,0.04-0.02,0.07-0.03
			l0.03-0.01c0.1-0.04,0.16-0.08,0.21-0.1c-0.01-0.05-0.03-0.14-0.07-0.26c-0.12-0.41-0.24-0.81-0.36-1.21
			c-0.24-0.81-0.49-1.65-0.73-2.48c-0.41,0.15-0.79,0.32-1.14,0.51c-0.64,0.39-0.87,0.72-0.85,1.21l0,0.03l0,0.03
			c-0.01,0.29-0.13,0.68-0.66,0.88c-0.1,0.04-0.21,0.07-0.32,0.07l0,0c-0.23,0-0.55-0.09-0.77-0.53l0,0
			c-0.07-0.11-0.13-0.23-0.2-0.34c-0.11-0.2-0.22-0.39-0.33-0.56c-0.07-0.11-0.28-0.44-0.18-0.83c0.1-0.4,0.43-0.58,0.56-0.65
			c3.05-1.74,6.52-2.66,10.02-2.66c0.43,0,0.86,0.01,1.29,0.04c0.35,0.01,0.62,0.12,0.81,0.35c0.19,0.22,0.25,0.51,0.19,0.86
			c-0.03,0.24-0.05,0.49-0.06,0.75c0,0.07-0.01,0.15-0.01,0.22c0,0.14,0,0.42-0.22,0.66c-0.14,0.15-0.34,0.25-0.55,0.26
			c-0.05,0-0.09,0.01-0.14,0.01c-0.36,0-0.66-0.18-0.83-0.51c-0.06-0.1-0.35-0.48-0.43-0.58c-0.1-0.11-0.49-0.15-0.94-0.21
			c-0.1-0.01-0.2-0.02-0.42-0.02c0,0-0.02,0-0.05,0c-0.09,0-0.27,0-0.48,0.03c0.08,0.81,0.36,2.69,0.48,3.46
			c0.05,0.32,0.08,0.5,0.09,0.61c0.01,0,0.03,0,0.04,0c0.08-0.01,0.13-0.01,0.16-0.02c0.05-0.01,0.12-0.03,0.21-0.05
			c0.06-0.01,0.13-0.02,0.21-0.02c0.19,0,0.36,0.06,0.51,0.18c0.32,0.28,0.38,0.77,0.12,1.1c-0.08,0.1-0.21,0.22-0.43,0.28
			c-0.07,0.02-0.15,0.03-0.23,0.04l-0.42,0.09c-0.13,0.03-0.22,0.04-0.27,0.05L39.14,9.2c-0.56,0.11-1.61,0.39-1.62,0.39
			c-0.26,0.07-0.53,0.14-0.86,0.24l-0.04,0.01c-0.16,0.05-0.25,0.07-0.34,0.1l-0.02,0c-0.17,0.05-0.36,0.11-0.41,0.13
			c-0.02,0.01-0.04,0.02-0.07,0.03l0,0l-0.03,0.01C35.64,10.16,35.52,10.19,35.41,10.19z"/>
		<path class="st0" d="M31.42,6.28c0.04,0.07,0.09,0.2,0.19,0.15c0.11-0.04,0.21-0.08,0.22-0.25c-0.03-0.91,0.51-1.43,1.21-1.85
			c0.52-0.3,1.07-0.52,1.64-0.7c0.25-0.09,0.35-0.07,0.43,0.22c0.39,1.35,0.8,2.72,1.2,4.07c0.11,0.38,0.15,0.61,0.07,0.78
			c-0.11,0.25-0.56,0.43-0.63,0.46c-0.04,0.02-0.07,0.03-0.1,0.04c-0.02,0.01-0.04,0.02-0.07,0.02c-0.03,0.01-0.08,0.03-0.14,0.04
			c-0.04,0.01-0.09,0.02-0.11,0.05c-0.01,0.01-0.01,0.02-0.01,0.02c0,0,0,0,0,0c0,0.01,0,0.03,0.01,0.04c0,0.01,0.01,0.02,0.01,0.03
			c0.01,0.01,0.01,0.02,0.02,0.04c0,0,0.02,0.02,0.02,0.03c0.01,0.01,0.06,0,0.12-0.02l0,0c0.02-0.01,0.05-0.02,0.07-0.03
			c0.11-0.05,0.49-0.16,0.49-0.16c0.11-0.03,0.2-0.06,0.4-0.12c0.33-0.09,0.6-0.17,0.87-0.24c0,0,1.08-0.29,1.67-0.4
			c0,0,0.01,0,0.02,0c0.02,0,0.06-0.01,0.12-0.02c0.07-0.01,0.18-0.04,0.36-0.07c0.09-0.02,0.12-0.02,0.19-0.04
			c0.06-0.01,0.11-0.02,0.15-0.03c0.08-0.01,0.15-0.03,0.18-0.03c0.01,0,0.03-0.01,0.04-0.02c0.02-0.03,0.01-0.09-0.02-0.12
			c-0.02-0.02-0.05-0.02-0.12,0c-0.1,0.02-0.17,0.04-0.19,0.04c-0.04,0.01-0.11,0.02-0.24,0.03c-0.12,0.01-0.18,0.02-0.23,0.02
			c-0.07,0-0.12-0.01-0.19-0.03c-0.03-0.01-0.11-0.04-0.18-0.1c-0.04-0.03-0.09-0.09-0.14-0.17c-0.06-0.11-0.06-0.21-0.07-0.24
			c-0.02-0.22-0.61-3.91-0.6-4.58c0-0.04,0-0.14,0.06-0.21c0.06-0.08,0.15-0.1,0.2-0.11c0.54-0.12,1.03-0.1,1.03-0.1
			c0.23,0.01,0.34,0.01,0.47,0.03c0.68,0.08,1.12,0.13,1.4,0.44c0.08,0.09,0.43,0.53,0.52,0.71c0.06,0.12,0.14,0.14,0.28,0.12
			c0.14,0,0.13-0.14,0.12-0.22c0.02-0.36,0.04-0.71,0.08-1.07c0.05-0.28-0.04-0.39-0.32-0.39c-3.82-0.25-7.61,0.63-10.94,2.53
			c-0.23,0.13-0.28,0.23-0.13,0.46C31.06,5.64,31.23,5.96,31.42,6.28z"/>
	</g>
	<g>
		<g>
			<path class="st0" d="M15.88,5.47c-0.72-0.48-1.45-0.6-2.31-0.73c-0.4-0.06-0.97-0.15-1.73-0.11c-0.56,0.03-1.26,0.06-2.07,0.42
				c-0.31,0.14-0.92,0.4-1.47,0.98C8.06,6.29,7.85,6.59,7.73,6.76C7.47,7.12,7.4,7.28,7.11,7.71C6.95,7.94,6.8,8.16,6.59,8.42
				C6.12,9,5.79,9.23,5.45,9.71c-0.14,0.21-0.23,0.38-0.27,0.47c-0.07,0.15-0.12,0.27-0.16,0.4c-0.1,0.27-0.15,0.41-0.18,0.59
				c-0.03,0.2-0.01,0.35,0,0.51c0.06,0.52,0.23,0.73,0.11,0.86c-0.07,0.07-0.14,0.03-0.35,0.12c-0.09,0.04-0.21,0.09-0.32,0.2
				c-0.11,0.11-0.09,0.15-0.19,0.29c-0.11,0.16-0.19,0.17-0.42,0.39c-0.15,0.14-0.11,0.12-0.34,0.35c-0.22,0.21-0.4,0.37-0.5,0.46
				c-0.23,0.2-0.24,0.19-0.39,0.33c-0.13,0.12-0.22,0.22-0.36,0.38c-0.23,0.26-0.35,0.39-0.43,0.5c-0.13,0.19-0.2,0.37-0.34,0.72
				c-0.14,0.35-0.21,0.52-0.26,0.74c-0.02,0.1-0.05,0.27-0.08,0.91c-0.02,0.45-0.02,0.68-0.01,0.85c0.03,0.49,0.1,0.6,0.24,1.47
				c0.09,0.58,0.05,0.49,0.1,0.69c0.12,0.52,0.24,0.49,0.57,1.34c0.07,0.19,0.13,0.36,0.3,0.49c0.12,0.1,0.17,0.08,0.36,0.22
				c0.17,0.13,0.18,0.18,0.33,0.27c0.12,0.08,0.23,0.12,0.34,0.16c0.15,0.05,0.35,0.13,0.55,0.13c0.3,0,0.51-0.16,0.62-0.23
				c0.57-0.36,1.18,0.03,3.07,0.09c0.06,0,0.47,0.01,0.98-0.08c0.47-0.08,0.66-0.18,0.75-0.24c0.33-0.2,0.48-0.49,0.53-0.58
				c0.38-0.62,0.99-0.37,2.59-1.01c0.41-0.17,0.94-0.41,1.68-0.58c0.23-0.05,0.52-0.11,0.86-0.01c0.36,0.11,0.39,0.28,0.65,0.36
				c0.57,0.17,1.24-0.46,1.63-0.84c0.49-0.47,0.76-0.91,0.99-1.29c0.33-0.54,0.7-1.16,0.92-2.04c0.12-0.49,0.1-0.71,0.33-0.96
				c0.28-0.32,0.59-0.33,1.18-0.54c0.2-0.07,0.63-0.32,1.47-0.8c1.07-0.61,1.6-0.91,1.73-1.02c0.29-0.26,0.99-0.94,1.3-2.05
				c0.08-0.3,0.23-0.84,0.13-1.5c-0.08-0.51-0.23-0.62-0.66-1.62c-0.53-1.26-0.4-1.34-0.68-1.63c-0.63-0.65-1.68-0.63-2.17-0.62
				c-0.77,0.02-0.76,0.22-2.19,0.42c-1.23,0.18-1.57,0.08-1.77-0.02c-0.14-0.06-0.45-0.29-1.07-0.75
				C15.98,5.55,16.02,5.56,15.88,5.47z"/>
		</g>
		<g>
			<g>
				<path class="st1" d="M51.62,12.2c-0.61-0.13-1.18-0.37-1.71-0.71c-0.26-0.19-0.47-0.42-0.64-0.68
					c-0.32-0.41-0.35-0.98-0.07-1.42c0.35-0.58,0.71-1.16,1.05-1.74s0.3-0.56-0.13-0.97c-0.05-0.05-0.14-0.09-0.1-0.17
					c0,0,0.01-0.02,0.03-0.03c0.05-0.04,0.19,0.03,0.19,0.03c0.01,0.01,0.02,0.01,2.3,1.54c0.03,0.02,0.12,0.08,0.12,0.16
					c0.01,0.06-0.04,0.12-0.12,0.21c-0.58,0.71-1.15,1.38-1.71,2.07c-0.41,0.51-0.3,0.92,0.32,1.15c0.41,0.24,0.94,0.15,1.23-0.22
					c0.37-0.44,0.83-0.81,1.25-1.22c0.41-0.41,0.35-0.47,0.08-0.84c-0.05-0.08-0.21-0.16-0.09-0.27c0.12-0.11,0.16,0.07,0.22,0.13
					c0.66,0.63,1.28,1.3,1.85,2.01c0.17,0.21,0.12,0.3-0.08,0.44c-0.79,0.56-1.57,1.14-2.35,1.72c-0.3,0.22-0.57,0.45-0.3,0.86
					c0.04,0.05,0.04,0.12,0,0.17c-0.09,0.05-0.13-0.04-0.16-0.09c-0.41-0.6-0.87-1.17-1.38-1.69c-0.09-0.09-0.11-0.16,0-0.24
					L51.62,12.2z"/>
			</g>
			<g>
				<path class="st1" d="M44.48,4.33c1.08,0.04,2.12,0.45,2.95,1.15c0.67,0.45,0.98,1.28,0.77,2.05c-0.26,0.82-0.99,1.38-1.85,1.42
					c-1.15,0.12-2.32-0.13-3.32-0.71c-0.47-0.26-0.86-0.64-1.12-1.12c-0.44-0.75-0.24-1.71,0.47-2.2C43,4.48,43.74,4.27,44.48,4.33z
					 M43.77,7.29c0,0.71,0.24,1.08,0.75,1.2c0.52,0.12,0.87-0.05,1.13-0.66c0.29-0.61,0.5-1.26,0.63-1.93
					c0.12-0.5-0.19-1.01-0.69-1.13c-0.02-0.01-0.04-0.01-0.07-0.01c-0.66-0.18-1.08,0-1.29,0.53C43.85,6.27,43.77,7.29,43.77,7.29
					L43.77,7.29C43.77,7.29,43.77,7.29,43.77,7.29z"/>
			</g>
			<g>
				<path class="st1" d="M57.5,16.62c0.22,0.17,0.43,0.32,0.62,0.49c0.63,0.55,1.02,1.31,1.11,2.13c0.07,0.47-0.14,0.88-0.43,0.95
					c-0.29,0.07-0.6-0.22-0.71-0.71c-0.09-0.36-0.09-0.75,0-1.12c0.17-0.6-0.17-1.21-0.77-1.39c-0.15-0.04-0.32-0.05-0.47-0.03
					c-0.66,0.12-1.3,0.33-1.9,0.63c-0.27,0.11-0.21,0.38-0.17,0.61c0,0.09,0.1,0.21,0,0.26c-0.1,0.04-0.12-0.12-0.14-0.19
					c-0.3-0.95-0.69-1.86-1.18-2.73c-0.04-0.07-0.15-0.14-0.05-0.22c0.1-0.08,0.16,0.05,0.21,0.12c0.15,0.24,0.46,0.32,0.7,0.18
					l0.01-0.01c0.79-0.39,1.59-0.79,2.36-1.19c0.36-0.18,0.38-0.35,0.21-0.83c0-0.08-0.15-0.18,0-0.25
					c0.15-0.07,0.14,0.09,0.18,0.17c0.46,0.84,0.86,1.71,1.18,2.61c0.08,0.22,0,0.28-0.18,0.33L57.5,16.62z"/>
			</g>
			<g>
				<path d="M36.5,15.33c-0.02-0.03-0.05-0.05-0.09-0.05c-0.03,0.01-0.05,0.04-0.07,0.07c-0.01,0.01-0.02,0.03-0.03,0.06
					c-0.01,0.02-0.01,0.02-0.01,0.03c-0.01,0.01-0.03,0.06-0.07,0.09c-0.03,0.03-0.07,0.07-0.12,0.07c-0.03,0-0.05-0.01-0.06-0.02
					c-0.06-0.04-0.1-0.1-0.11-0.16c-0.01-0.03-0.01-0.06-0.01-0.09c0-0.05,0.02-0.08,0.04-0.1c0.09-0.15,0.37-0.35,0.34-0.46
					c-0.02-0.06-0.13-0.1-0.2-0.1c-0.11-0.01-0.18,0.05-0.23,0c-0.03-0.03-0.01-0.05-0.04-0.09c-0.06-0.08-0.23-0.08-0.35-0.01
					c-0.02,0.01-0.03,0.02-0.04,0.03c-0.09,0.1-0.1,0.18-0.15,0.28c-0.05,0.11-0.07,0.07-0.21,0.26c-0.03,0.04-0.09,0.13-0.16,0.26
					c-0.06,0.13-0.1,0.2-0.08,0.3c0.01,0.08,0.05,0.14,0.06,0.16c0.02,0.03,0.02,0.03,0.1,0.13c0.06,0.08,0.07,0.1,0.08,0.13
					c0,0.04-0.01,0.08-0.02,0.1c0,0.01-0.01,0.02-0.01,0.02c-0.01,0.01-0.04,0.02-0.05,0.02c-0.01,0-0.04-0.01-0.05-0.02
					c-0.03-0.08-0.08-0.18-0.17-0.23c-0.09-0.04-0.15-0.01-0.2-0.05c-0.04-0.04-0.07-0.13,0.01-0.36c-0.04,0.03-0.09,0.05-0.13,0.08
					c-0.11,0.19-0.24,0.45-0.38,0.77c-0.17,0.39-0.26,0.7-0.3,0.83c-0.02,0.07-0.08,0.28-0.14,0.57c-0.1,0.54-0.06,0.7,0.03,0.78
					c0.03,0.02,0.06,0.04,0.13,0.1c0.07,0.06,0.13,0.12,0.16,0.19c0.02,0.05,0.02,0.1,0.03,0.22c0.01,0.17-0.01,0.22,0.03,0.27
					c0.04,0.04,0.1,0.06,0.15,0.06c0.1-0.01,0.15-0.1,0.27-0.23c0.03-0.03,0.2-0.23,0.29-0.32c0.1-0.1,0.2-0.17,0.4-0.3
					c0.48-0.32,0.69-0.36,0.73-0.56c0-0.02,0.01-0.09,0.02-0.22c0-0.04,0.01-0.07,0.01-0.1c0.01-0.11,0.01-0.16,0.01-0.19
					c0.02-0.24,0.11-0.3,0.06-0.41c-0.03-0.05-0.08-0.08-0.11-0.1c-0.09-0.05-0.13-0.02-0.16-0.06c-0.05-0.06-0.02-0.17,0.02-0.24
					c0.04-0.07,0.11-0.1,0.14-0.12c0.24-0.13,0.4-0.32,0.49-0.44c0.06-0.07,0.13-0.16,0.18-0.3c0,0,0.1-0.27,0-0.53
					C36.5,15.34,36.5,15.33,36.5,15.33z"/>
			</g>
			<g>
				<polygon class="st2" points="34.78,15.91 34.77,15.91 34.78,15.91 				"/>
			</g>
			<g>
				<path class="st2" d="M38.71,24.33c-0.04-0.1-0.1-0.19-0.18-0.25c-0.12-0.12-0.22-0.27-0.28-0.42c-0.06-0.16-0.08-0.33-0.08-0.49
					c0-0.33,0.02-1.62-0.13-2.59c-0.02-0.14-0.12-0.72-0.41-1.07c-0.16-0.19-0.36-0.35-0.36-0.35c-0.04-0.03-0.09-0.07-0.16-0.11
					c-0.01,0-0.07-0.05-0.13-0.08c-0.13-0.07-0.26-0.12-0.39-0.16c-0.09-0.03-0.2-0.07-0.35-0.1c-0.17-0.04-0.3-0.05-0.35-0.06
					c-0.26-0.02-0.64,0.07-0.92,0.3c-0.29,0.23-0.52,0.6-0.82,0.84c-0.03,0.02-0.09,0.07-0.17,0.07c-0.1-0.01-0.18-0.14-0.2-0.25
					c-0.05-0.19,0.02-0.47-0.02-0.56c-0.01-0.02-0.02-0.04-0.02-0.04c-0.01-0.01-0.04-0.08-0.12-0.13c-0.06-0.04-0.11-0.04-0.2-0.05
					c-0.12-0.01-0.25,0-0.25,0c-1.06,0.18-1.73,0.4-2.59,0.82c-0.52,0.25-0.54,0.65-0.06,0.97c0.13,0.07,0.24,0.19,0.31,0.33
					c0.07,0.14,0.11,0.29,0.1,0.45c0.01,0.71-0.04,1.41-0.08,2.12c0,0.11-0.04,0.22-0.08,0.33c-0.05,0.11-0.12,0.19-0.22,0.27
					c-0.12,0.09-0.3,0.33-0.28,0.54c0.02,0.22,0.27,0.35,0.42,0.44c0.22,0.12,0.42,0.16,0.68,0.19c0.69,0.08,1.22,0.04,1.48,0.01
					c0.39-0.04,0.62-0.09,0.85-0.19c0.22-0.09,0.44-0.19,0.5-0.38c0.06-0.17,0.02-0.34-0.16-0.6c-0.18-0.27-0.28-0.58-0.27-0.89
					c-0.02-0.64,0-1.28,0.06-1.91c0.07-0.41,0.24-0.59,0.6-0.62h0.02c0.16-0.02,0.33,0.01,0.46,0.11c0.13,0.1,0.23,0.24,0.25,0.4
					c0.22,0.89,0.22,1.82,0,2.71c-0.05,0.13-0.12,0.25-0.22,0.34c-0.07,0.06-0.11,0.13-0.14,0.23c-0.02,0.04-0.02,0.08-0.03,0.12
					c-0.01,0.07,0.01,0.13,0.02,0.16c0.01,0.04,0.04,0.15,0.13,0.24c0.06,0.06,0.12,0.08,0.24,0.13c0.06,0.02,0.23,0.09,0.49,0.13
					c0.03,0.01,0.06,0.01,0.1,0.01c0.23,0.03,0.42,0.03,0.67,0.04c0.33,0.01,0.57,0,0.65-0.01c0.2-0.01,0.36-0.03,0.48-0.04
					c0.37-0.04,0.56-0.09,0.72-0.15c0.01,0,0.16-0.07,0.3-0.18c0.03-0.03,0.07-0.06,0.09-0.11c0.03-0.05,0.05-0.1,0.06-0.16
					C38.75,24.53,38.75,24.42,38.71,24.33z M35.72,18.7"/>
			</g>
			<g>
				<path class="st2" d="M33.75,19.03"/>
			</g>
			<g>
				<path class="st2" d="M43.21,18.79c0.33,0.07,0.6,0.19,0.78,0.29c0.02,0.01,0.11,0.07,0.2,0.04c0.03-0.01,0.08-0.05,0.11-0.18
					c0.12-0.41,0-0.74-0.36-0.87c-0.32-0.12-0.42-0.2-0.48-0.35c-0.03-0.07-0.03-0.15-0.03-0.22c0-0.06,0-0.16,0.04-0.24
					c0.05-0.12,0.17-0.18,0.52-0.3c0.23-0.08,0.28-0.09,0.47-0.15c0.46-0.15,0.62-0.25,1-0.32c0.05-0.01,0.08-0.02,0.15-0.03
					c0.37-0.06,0.62-0.08,0.9-0.08c0.3,0,0.59,0.05,0.6,0.45c0,0.11,0,0.22,0.01,0.33c0.01,0.13,0.01,0.25,0.02,0.38v5.36
					c-0.02,0.17,0,0.35,0.07,0.51c0.07,0.16,0.19,0.3,0.34,0.4c0.37,0.25,0.34,0.66-0.05,0.93c-0.17,0.12-0.31,0.19-0.63,0.29
					c-0.45,0.15-0.85,0.21-1.17,0.25c-0.11,0.01-0.2,0.02-0.26,0.02c-0.21,0-0.43,0.01-0.64,0.01c-0.05-0.01-0.13-0.02-0.19-0.08
					c-0.07-0.08-0.04-0.16-0.09-0.35c-0.03-0.1-0.07-0.22-0.15-0.25c-0.1-0.03-0.22,0.06-0.26,0.1c0,0,0,0,0,0
					c-0.07,0.04-0.65,0.38-1.12,0.51c-0.49,0.14-0.96,0.06-1.16,0.02c-1.09-0.25-1.65-1.26-1.83-1.58
					c-0.13-0.24-0.46-0.84-0.45-1.68c0.01-0.78,0.31-1.36,0.47-1.66c0.07-0.14,0.14-0.27,0.27-0.44c0.56-0.74,1.34-0.96,1.58-1.03
					C42.31,18.73,42.77,18.7,43.21,18.79z M44.36,21.79c0.01-0.37-0.02-0.76-0.11-1.12c-0.01-0.13-0.08-0.25-0.17-0.35
					c-0.1-0.1-0.22-0.16-0.35-0.18c-0.14-0.02-0.29,0-0.41,0.06s-0.23,0.17-0.29,0.3c-0.22,0.41-0.35,0.87-0.37,1.34
					c-0.02,0.47,0.05,0.94,0.22,1.38c0.05,0.16,0.14,0.29,0.28,0.39c0.13,0.1,0.3,0.13,0.46,0.12c0.39,0,0.53-0.3,0.62-0.63
					C44.33,22.67,44.37,22.24,44.36,21.79L44.36,21.79z"/>
			</g>
			<g>
				<path class="st2" d="M23.76,25.17c-0.26-0.07-0.39-0.15-0.45-0.19c-0.05-0.03-0.25-0.16-0.44-0.4c-0.27-0.35-0.33-0.7-0.34-0.78
					c-0.04-0.29-0.01-0.58,0.1-0.84c0.11-0.27,0.28-0.51,0.49-0.69c0.54-0.43,1.19-0.69,1.88-0.72h0.36
					c0.27-0.04,0.65,0.13,0.71-0.24c0.07-0.23,0.08-0.47,0.04-0.71c-0.05-0.23-0.16-0.46-0.31-0.64c-0.03-0.03-0.16-0.13-0.34-0.12
					c-0.1,0.01-0.17,0.04-0.21,0.06c-0.07,0.08-0.18,0.2-0.3,0.33c-0.13,0.14-0.19,0.21-0.25,0.28c-0.28,0.32-0.26,0.31-0.32,0.36
					c-0.14,0.11-0.29,0.21-0.46,0.28c-0.14,0.07-0.33,0.1-0.48,0.06c-0.17-0.04-0.31-0.12-0.42-0.25c-0.1-0.12-0.16-0.28-0.16-0.45
					c0-0.16,0.05-0.31,0.16-0.45c0.1-0.17,0.23-0.33,0.39-0.43c0.55-0.41,1.21-0.69,1.88-0.81c0.68-0.12,1.39-0.08,2.05,0.11
					c1.06,0.3,1.52,0.98,1.53,2.09v1.73c0,0.37,0,0.77,0.54,0.84c0.19,0.02,0.21,0.24,0.16,0.41c-0.1,0.33-0.3,0.58-0.42,0.7
					c-0.13,0.13-0.26,0.21-0.34,0.27c-0.08,0.05-0.22,0.15-0.41,0.22c-0.46,0.18-0.93,0.11-1.21,0.02
					c-0.15-0.05-0.24-0.11-0.27-0.13c-0.19-0.12-0.3-0.26-0.32-0.29c0,0-0.01-0.02-0.03-0.04c-0.02-0.02-0.04-0.03-0.04-0.04
					c-0.02-0.01-0.03-0.02-0.04-0.02c-0.02-0.01-0.04-0.01-0.05-0.01c0,0-0.02,0-0.05,0c-0.02,0-0.03,0-0.05,0
					c-0.01,0-0.01,0-0.03,0.01c-0.01,0.01-0.03,0.01-0.05,0.03c0,0-0.01,0.01-0.01,0.01c0,0-0.01,0-0.01,0c0,0,0,0,0,0
					c0,0-0.22,0.13-0.52,0.31c-0.17,0.08-0.32,0.14-0.46,0.18C24.57,25.38,24.01,25.23,23.76,25.17z M26.17,23.07
					c0-0.52-0.14-0.69-0.51-0.59c-0.12,0.04-0.24,0.1-0.33,0.19c-0.08,0.1-0.14,0.22-0.17,0.34c-0.05,0.13-0.05,0.28-0.01,0.41
					c0.04,0.13,0.11,0.27,0.21,0.36c0.08,0.07,0.21,0.12,0.31,0.11c0.12,0,0.23-0.06,0.3-0.14c0.04-0.04,0.06-0.07,0.07-0.12
					C26.14,23.46,26.17,23.27,26.17,23.07L26.17,23.07z"/>
			</g>
			<g>
				<path class="st2" d="M51.64,18.75c0.52-0.04,1.05-0.01,1.57,0.07c1.19,0.29,1.76,0.97,1.77,2.2c-0.02,0.64-0.01,1.27,0.04,1.91
					c0.05,0.3,0.08,0.58,0.48,0.62c0.22,0,0.23,0.22,0.19,0.41c-0.06,0.22-0.16,0.43-0.3,0.6c-0.19,0.22-0.4,0.35-0.53,0.42
					c-0.13,0.07-0.25,0.12-0.33,0.15c-0.14,0.07-0.4,0.16-0.73,0.16c-0.23,0-0.41-0.05-0.54-0.09c-0.03-0.01-0.25-0.12-0.39-0.24
					c-0.06-0.05-0.16-0.15-0.19-0.18c0,0-0.01-0.01-0.02-0.02c-0.01-0.01-0.02-0.02-0.03-0.03c-0.01-0.01-0.01-0.01-0.02-0.01
					c-0.05-0.04-0.1-0.05-0.1-0.05c-0.02,0-0.05-0.01-0.09,0c-0.01,0-0.04,0.01-0.06,0.02c-0.02,0.01-0.07,0.04-0.08,0.05
					c-0.14,0.1-0.31,0.2-0.51,0.3c-0.15,0.07-0.3,0.13-0.43,0.18c-0.27,0.07-0.49,0.09-0.66,0.09c-0.2,0-0.36-0.02-0.47-0.04
					c-0.19-0.03-0.37-0.05-0.57-0.14c-0.13-0.05-0.44-0.19-0.7-0.52c-0.18-0.23-0.3-0.51-0.34-0.8c-0.04-0.29,0-0.59,0.11-0.87
					c0.11-0.28,0.29-0.52,0.52-0.7c0.31-0.25,0.69-0.43,1.07-0.54c0.46-0.12,0.94-0.17,1.41-0.16c0.34,0,0.49-0.16,0.46-0.49
					c0-0.1,0-0.19,0-0.29c-0.07-0.33,0-0.76-0.45-0.88s-0.65,0.25-0.87,0.54c-0.21,0.33-0.49,0.58-0.84,0.72
					c-0.14,0.07-0.33,0.1-0.48,0.06c-0.17-0.04-0.31-0.12-0.42-0.25c-0.1-0.12-0.16-0.28-0.16-0.45c0-0.16,0.06-0.31,0.16-0.45
					c0.05-0.07,0.09-0.13,0.14-0.19c0,0,0.06-0.07,0.13-0.14c0.19-0.18,0.49-0.37,0.53-0.4c0.25-0.14,0.48-0.24,0.65-0.31
					c0.16-0.06,0.32-0.13,0.55-0.18c0.15-0.03,0.28-0.05,0.38-0.06L51.64,18.75z M52.26,23.1c0-0.49-0.06-0.63-0.34-0.64
					c-0.19,0.01-0.36,0.1-0.49,0.24c-0.13,0.14-0.19,0.33-0.18,0.52c0,0.39,0.19,0.66,0.49,0.68C52.04,23.91,52.23,23.65,52.26,23.1
					L52.26,23.1z"/>
			</g>
			<g>
				<path d="M46.07,14.21c-0.02,0.01-0.06,0.01-0.14,0.02c-0.06,0-0.07,0-0.1,0.01c-0.05,0.02-0.07,0.05-0.09,0.06
					c-0.08,0.06-0.21,0-0.25-0.02c-0.27-0.11-0.56-0.18-0.83-0.28c-0.47-0.18-0.62-0.18-0.73-0.18c-0.09,0-0.16,0-0.2,0.01
					c-0.03,0.01-0.14,0.02-0.23-0.05c-0.02-0.02-0.06-0.05-0.05-0.08c0.01-0.06,0.13-0.06,0.15-0.12c0.01-0.03-0.01-0.06-0.02-0.08
					c-0.09-0.16-0.58-0.25-0.68-0.27c-0.36-0.07-0.49-0.07-0.64-0.2c-0.01-0.01-0.14-0.12-0.11-0.19c0.02-0.05,0.08-0.06,0.16-0.13
					c0.07-0.06,0.1-0.13,0.12-0.19c0.11-0.26,0.08-0.36,0.04-0.41c-0.09-0.09-0.28,0-0.46-0.11c-0.04-0.02-0.1-0.08-0.09-0.14
					c0.01-0.13,0.28-0.15,0.36-0.33c0.01-0.03,0.02-0.06,0.01-0.1c0-0.03,0.01-0.08,0.04-0.13c0.04-0.06,0.08-0.05,0.13-0.1
					c0.07-0.08,0.04-0.15,0.1-0.19c0.05-0.03,0.07,0,0.12-0.04c0.06-0.04,0.05-0.09,0.1-0.11c0.03-0.01,0.05,0,0.09,0.01
					c0.1,0.03,0.1,0.01,0.23,0.03c0.14,0.02,0.13,0.05,0.2,0.05c0.09,0,0.16-0.03,0.23-0.07c0.07-0.03,0.22-0.1,0.23-0.2
					c0-0.08-0.09-0.13-0.08-0.15c0.02-0.05,0.32-0.01,1.33,0.24c0.63,0.24,0.85,0.33,0.91,0.35c0.01,0,0.07,0.02,0.15,0.06
					c0.02,0.01,0.05,0.02,0.08,0.03c1.44,0.59,2.7,1.57,3.64,2.8c0.95,1.24,1.56,2.7,1.75,4.25c-0.03,0.01-0.07,0.02-0.13,0.02
					c-0.02,0-0.11,0-0.2-0.04c-0.1-0.04-0.15-0.11-0.18-0.14c-0.1-0.13-0.03-0.24-0.06-0.55c-0.02-0.18-0.04-0.39-0.18-0.55
					c-0.04-0.05-0.06-0.06-0.1-0.13c-0.09-0.13-0.08-0.22-0.12-0.35c-0.02-0.06-0.1-0.3-0.27-0.39c-0.18-0.09-0.3,0.06-0.42-0.03
					c-0.13-0.09-0.01-0.3-0.13-0.67c-0.02-0.06-0.09-0.25-0.24-0.43c-0.11-0.13-0.15-0.12-0.29-0.25c-0.29-0.28-0.23-0.42-0.51-0.64
					c-0.12-0.09-0.23-0.18-0.39-0.19c-0.12-0.01-0.18,0.03-0.27-0.01c-0.09-0.04-0.1-0.1-0.2-0.19c-0.08-0.07-0.16-0.1-0.22-0.12
					c-0.06-0.02-0.15-0.06-0.18-0.13c-0.04-0.08,0.02-0.13-0.01-0.21c-0.04-0.15-0.26-0.2-0.44-0.24c-0.14-0.03-0.24-0.06-0.33,0
					c-0.01,0.01-0.09,0.06-0.1,0.15c-0.02,0.12,0.11,0.17,0.09,0.28c-0.01,0.08-0.09,0.08-0.31,0.25c-0.24,0.19-0.26,0.27-0.25,0.32
					c0,0.02,0.01,0.05,0,0.1C46.11,14.14,46.11,14.19,46.07,14.21z"/>
			</g>
			<g>
				<path class="st2" d="M42.05,11.17c0.01,0.08-0.12,0.12-0.15,0.24c0,0.01-0.02,0.06-0.05,0.12c-0.01,0.01-0.01,0.02-0.03,0.03
					c-0.06,0.06-0.13,0.07-0.16,0.08c-0.13,0.02-0.16-0.05-0.27-0.03c-0.1,0.02-0.09,0.09-0.22,0.13c-0.08,0.02-0.14,0.02-0.17,0.01
					c-0.03-0.01-0.09-0.02-0.13-0.06c-0.02-0.02-0.04-0.03-0.04-0.06c-0.01-0.05,0.04-0.08,0.04-0.16c0-0.02,0-0.04-0.02-0.06
					c-0.03-0.03-0.07-0.04-0.08-0.04c-0.06,0-0.1,0.04-0.13,0.07c-0.11,0.11-0.18,0.21-0.2,0.23c-0.18,0.24-0.55,0.23-0.64,0.23
					c-0.1,0-0.2,0-0.25-0.07c-0.06-0.08-0.03-0.22,0.03-0.3c0.04-0.05,0.09-0.08,0.12-0.1c0.01,0,0.06-0.03,0.08-0.09
					c0-0.01,0.01-0.05-0.01-0.09c-0.02-0.04-0.07-0.05-0.1-0.06c-0.11-0.03-0.23,0.02-0.33,0.07c-0.26,0.13-0.26,0.18-0.4,0.2
					c-0.09,0.02-0.25,0.02-0.29-0.05c-0.01-0.03-0.01-0.05,0-0.08c0.63-0.31,1.63-0.71,2.92-0.86c1.38-0.15,2.49,0.05,2.49,0.05
					c0,0-0.39-0.05-0.91,0.03c-0.09,0.01-0.15,0.03-0.19,0.03c-0.61,0.09-1.37,0.14-1.52,0.31c-0.01,0.01-0.04,0.05-0.03,0.07
					c0.02,0.06,0.23-0.04,0.45,0.05C41.92,11.04,42.04,11.09,42.05,11.17z"/>
			</g>
			<g>
				<g>
					<path d="M9.44,25.28c-0.46-0.05-0.88-0.2-0.9-0.21c-0.18-0.06-0.45-0.09-0.98-0.16c-0.44-0.05-1.29-0.17-2.23-0.1
						c-0.3,0.02-0.62-0.02-0.9-0.13c-0.14-0.05-0.28-0.13-0.39-0.24c-0.11-0.11-0.19-0.24-0.24-0.39c-0.04-0.11,0.04-0.3-0.16-0.33
						s-0.46-0.18-0.7-0.1c-0.41,0.13-0.84,0.14-1.27,0.04C0.9,23.5,0.7,22.86,1.26,22.3c0.18-0.18,0.13-0.29,0.07-0.46
						c-0.59-1.53-0.72-3.21-0.41-4.83c0.07-0.34,0.22-0.94,0.65-1.58c0.41-0.6,0.89-0.97,1.1-1.13c0.4-0.32,0.97-0.82,1.67-1.59
						c0.01,0.08,0.02,0.15,0.04,0.23C4.23,13.11,4,13.37,3.71,13.67c-0.29,0.29-0.45,0.43-0.68,0.65C2.4,14.9,2.09,15.2,1.87,15.56
						c-0.39,0.64-0.52,1.28-0.58,1.6c-0.01,0.07-0.04,0.23-0.07,0.42c-0.05,0.33-0.09,0.56-0.1,0.84c-0.01,0.27,0.01,0.51,0.05,0.99
						c0.03,0.35,0.06,0.55,0.07,0.61c0.02,0.17,0.04,0.3,0.08,0.48c0.05,0.26,0.11,0.46,0.13,0.53c0.06,0.22,0.15,0.5,0.29,0.82
						c0.01,0.05,0.04,0.08,0.07,0.12c0.04,0.04,0.07,0.06,0.12,0.07c0.19,0.06,0.36,0.16,0.51,0.29c0.14,0.13,0.25,0.3,0.31,0.49
						c0.03,0.07,0.06,0.14,0.11,0.2c0.08,0.1,0.16,0.16,0.22,0.2c0.19,0.12,0.39,0.16,0.51,0.16c0.09,0.01,0.13-0.01,0.14-0.02
						c0.14-0.06,0.17-0.25,0.18-0.32c0,0,0.08-0.41,0.31-1.09c0.09-0.26,0.32-0.59,0.97-0.88c0.04-0.02,0.09-0.04,0.16-0.05
						c0.1-0.02,0.19-0.01,0.25,0c0.06,0.01,0.14,0.02,0.24,0.05c0,0,0.34,0.08,0.65,0.25c0.39,0.21,0.67,0.48,0.94,0.9
						c0.18,0.28,0.37,0.54,0.57,0.82c0.11,0.11,0.25,0.17,0.4,0.18c0.14,0.01,0.3-0.02,0.42-0.11c0.08-0.07,0-0.13,0-0.19
						c-0.65-1.35-1.19-2.77-2.06-4.02c-0.3-0.43-0.53-0.9-0.68-1.41c-0.16-0.45-0.39-0.86-0.66-1.24c-0.34-0.48-0.58-1.01-0.74-1.58
						c-0.11-0.4-0.17-0.72-0.17-0.72c-0.01-0.09-0.02-0.14-0.1-0.76c-0.01-0.04-0.03-0.2-0.03-0.24c-0.02-0.15-0.04-0.23-0.04-0.23
						c0,0,0.03-0.08,0.08-0.21c0.06-0.1,0.12-0.22,0.17-0.35c0.16-0.4,0.2-0.77,0.2-1.04c0.04,0,0.08,0,0.12,0
						c-0.02,0.71,0.15,1.22,0.29,1.51c0.3,0.65,0.78,1.07,1.44,1.64c0.23,0.2,0.48,0.39,0.73,0.57c0.54,0.43,1.23,0.65,1.93,0.64
						c0.19-0.01,0.4,0.04,0.57,0.13c0.18,0.12,0.39,0.16,0.59,0.12c0.21-0.04,0.39-0.16,0.52-0.33c0.18-0.24,0.42-0.43,0.68-0.59
						c0.27-0.14,0.55-0.24,0.86-0.27c-0.04-0.04-0.09-0.08-0.17-0.12c-0.11-0.06-0.18-0.06-0.27-0.13c-0.04-0.03-0.1-0.08-0.15-0.15
						c0.04,0.03,0.19,0.08,0.21,0.08c1.35,0.48,2.57,0.11,3.7-0.62c0.82-0.52,1.53-1.17,2.35-1.66c0.23-0.14,0.42-0.34,0.55-0.57
						c0.14-0.24,0.2-0.45,0.23-0.57c0.04-0.17,0.12-0.49,0.03-0.54c-0.1-0.05-0.3,0.29-0.71,0.57c-0.31,0.21-0.62,0.31-0.85,0.36
						c0.64-0.28,0.93-1,1.6-1.24c0.34-0.13,0.23-1.06-0.13-1.27c-0.35-0.22-0.65-0.53-0.86-0.89c-0.3-0.52-0.76-0.92-1.31-1.15
						c-0.52-0.23-0.99-0.53-1.41-0.9c-0.54-0.48-1.15-0.65-1.38-0.72C13.57,4.88,13.55,4.94,12,4.66c-0.19-0.03-0.34-0.06-0.44-0.08
						c0.01-0.05,0.02-0.12,0.07-0.21c0.05-0.09,0.12-0.14,0.16-0.17c0.11-0.11,0.24-0.18,0.39-0.24c0.14-0.05,0.29-0.08,0.45-0.07
						c0.16,0,0.3,0.04,0.43,0.1c0.07,0.04,0.14,0.07,0.22,0.12c0.52,0.45,1.18,0.68,1.87,0.64c2.47-0.08,4.92-0.21,7.37-0.34
						c2.34-0.13,4.61,0.12,6.64,1.47c1.31,0.88,2.3,2.01,2.58,3.62c0.22,1.05,0.14,2.15-0.22,3.16s-1,1.91-1.85,2.58
						c-1.48,1.3-3.35,2.06-5.32,2.18c-1.39,0.13-2.79,0.08-4.17-0.12c-0.41-0.07-0.8,0-0.76,0.66c0.06,0.88-0.06,1.76,0.07,2.64
						c0.02,0.29,0.13,0.57,0.3,0.81c0.18,0.23,0.41,0.41,0.69,0.52c0.37,0.16,0.72,0.35,1.05,0.57c0.26,0.17,0.54,0.44,0.55,0.78
						c0.01,0.41-0.44,0.73-0.79,0.98c-0.43,0.3-0.82,0.42-1.22,0.54c-0.37,0.11-0.7,0.17-1.35,0.28c-0.33,0.06-0.54,0.09-0.84,0.13
						c-0.57,0.07-1,0.08-1.38,0.08c-0.42,0.01-0.7,0-1.28-0.02c-0.6-0.02-0.94-0.03-1.35-0.06c-0.64-0.05-1.12-0.09-1.7-0.23
						c-1.01-0.25-2.39-0.83-2.79-1.27c-0.04-0.04-0.2-0.23-0.43-0.27c-0.15-0.02-0.28,0.02-0.35,0.04
						c-0.08,0.02-0.14,0.04-0.15,0.08c-0.01,0.08,0.47,0.39,0.65,0.52c0.25,0.18,0.36,0.24,0.52,0.4c0.26,0.26,0.28,0.4,0.27,0.47
						c0,0.01,0,0.02,0,0.02c-0.01,0.12-0.08,0.21-0.11,0.24C9.69,25.31,9.53,25.29,9.44,25.28z M20.7,7.46
						c0.27,1.44,0.17,2.92-0.28,4.31c-0.16,0.63-0.17,1.29-0.04,1.93c0.01,0.08,0.05,0.16,0.11,0.23c0.06,0.06,0.13,0.11,0.22,0.12
						c0.55,0.12,1.12,0.07,1.64-0.14c0.52-0.21,0.97-0.58,1.28-1.04c0.47-0.82,0.65-1.79,0.49-2.73c-0.1-0.81-0.52-1.54-1.17-2.04
						C22.33,7.59,21.51,7.37,20.7,7.46L20.7,7.46z M20.31,14.56c-0.23,0.06-0.45,0.17-0.64,0.33c-0.62,0.48-1.18,0.68-1.81,0
						c-0.28-0.29-0.64-0.16-0.94,0.05c-0.12,0.07-0.21,0.18-0.24,0.31c-0.04,0.13-0.02,0.27,0.04,0.39
						c0.07,0.23,0.08,0.48,0.04,0.72c-0.05,0.24-0.16,0.47-0.31,0.65c-0.22,0.28-0.46,0.54-0.72,0.77c-0.35,0.3-0.63,0.66-0.82,1.07
						c-0.14,0.3-0.21,0.65-0.16,0.99c0.05,0.34,0.19,0.65,0.43,0.9c0.13,0.17,0.22,0.17,0.37,0.04c0.59-0.48,1.15-1,1.65-1.57
						c0.65-0.68,1.06-1.54,1.17-2.47c0.01-0.12,0.06-0.24,0.13-0.34c0.07-0.1,0.17-0.18,0.29-0.22c0.49-0.24,0.93-0.58,1.3-0.99
						c0.08-0.07,0.14-0.17,0.18-0.28c0.04-0.11,0.05-0.22,0.04-0.33L20.31,14.56z"/>
				</g>
				<g>
					<path d="M11.57,4.58c0.09,0.02,0.19,0.03,0.28,0.05C12,4.66,12.15,4.69,12.3,4.71c-0.55-0.01-1.12,0.04-1.66,0.13
						C10.02,5,9.44,5.27,8.94,5.65c-0.51,0.39-0.93,0.86-1.25,1.4C6.87,8.4,6.43,8.78,6.32,8.9C6.13,9.11,5.97,9.28,5.97,9.28
						c-0.19,0.2-0.22,0.23-0.28,0.31c-0.22,0.25-0.35,0.48-0.4,0.57c-0.12,0.21-0.27,0.53-0.36,0.96c-0.04,0-0.08,0-0.12,0
						c0.06-0.69,0.36-1.33,0.86-1.81c0.69-0.72,1.29-1.52,1.81-2.38c0.33-0.57,0.78-1.06,1.31-1.45c0.53-0.39,1.15-0.65,1.8-0.78
						C10.91,4.64,11.24,4.61,11.57,4.58z"/>
				</g>
			</g>
			<g>
				<path d="M38.19,11.64c0.01,0,0.03,0,0.05,0.01c0.01,0.01,0.03,0.01,0.04,0.02c0.03,0.03-0.01,0.1-0.02,0.12
					c-0.08,0.14-0.24,0.27-0.25,0.29c-0.23,0.19-0.33,0.24-0.32,0.34c0,0.05,0.03,0.06,0.01,0.09c-0.03,0.09-0.26,0-0.42,0.12
					c-0.13,0.1-0.1,0.25-0.25,0.3c-0.03,0.01-0.08,0.02-0.12,0.07c-0.04,0.04-0.05,0.09-0.06,0.12c0,0,0,0.01,0,0.01
					c-0.01,0.05-0.02,0.15,0.03,0.26c0.03,0.07,0.04,0.06,0.05,0.12c0.02,0.08,0,0.14,0,0.16c-0.01,0.04-0.03,0.09-0.07,0.1
					c-0.04,0.02-0.09,0-0.12-0.01c-0.01,0-0.02-0.01-0.07-0.04c-0.05-0.03-0.07-0.06-0.08-0.07c-0.08-0.07-0.22-0.04-0.36-0.03
					c-0.07,0.01-0.09,0.02-0.11,0.04c-0.04,0.05,0.03,0.13,0.01,0.18c-0.02,0.05-0.15,0.07-0.49,0c0.27-0.33,0.6-0.69,1-1.06
					C37.19,12.28,37.73,11.91,38.19,11.64z"/>
			</g>
			<g>
				<path class="st3" d="M39.07,14.95c0-0.05,0-0.11,0.08-0.13l0.02,0.02L39.07,14.95L39.07,14.95z"/>
			</g>
			<g>
				<path class="st4" d="M37.84,16.18c0.01-0.02,0.02-0.05,0.05-0.06c0.02-0.01,0.05-0.01,0.07-0.01c-0.01,0.02-0.04,0.04-0.05,0.05
					C37.89,16.18,37.86,16.18,37.84,16.18L37.84,16.18z"/>
			</g>
			<g>
				<path class="st3" d="M42.14,16.12h-0.02c0,0,0-0.02,0-0.04h0.02V16.12z"/>
			</g>
			<g>
				<path class="st4" d="M39.9,19.59v-0.02h0.04v0.02H39.9z"/>
			</g>
			<g>
				<path d="M8.72,11.43c0.11,0.94-0.36,0.88-0.94,0.59c-0.48-0.24-0.92-0.55-1.29-0.94c-0.16-0.16-0.29-0.35-0.36-0.55
					c-0.07-0.21-0.1-0.43-0.07-0.66c0.04-0.22,0.11-0.43,0.24-0.62c0.13-0.18,0.3-0.34,0.49-0.43C6.9,8.73,7.03,8.67,7.16,8.64
					c0.13-0.02,0.28-0.02,0.41,0.01s0.25,0.1,0.36,0.19c0.11,0.1,0.19,0.21,0.24,0.34c0.3,0.6,0.48,1.25,0.52,1.92
					C8.71,11.21,8.72,11.32,8.72,11.43z"/>
			</g>
			<g>
				<path d="M14.97,9.52c0,0.82-0.35,1.3-0.97,1.4c-0.62,0.1-1.04-0.21-1.05-0.86c0-0.24-0.08-0.41-0.1-0.57
					c-0.03-0.26-0.05-0.39-0.02-0.54c0.02-0.12,0.05-0.33,0.21-0.54c0.16-0.21,0.35-0.31,0.46-0.35c0.11-0.03,0.33-0.07,0.58,0.01
					c0.25,0.08,0.39,0.23,0.5,0.35c0.2,0.21,0.29,0.43,0.31,0.5C14.98,9.17,14.97,9.38,14.97,9.52z M14.21,9.51
					c0.05-0.01,0.09-0.03,0.14-0.06c0.02-0.01,0.07-0.05,0.1-0.1c0.05-0.08,0.03-0.18,0.02-0.22c-0.04-0.23-0.31-0.6-0.64-0.59
					c-0.04,0-0.17,0.01-0.27,0.1c-0.14,0.12-0.14,0.32-0.14,0.36c0,0.02,0,0.11,0.05,0.22c0.02,0.05,0.05,0.09,0.06,0.1
					c0.03,0.04,0.05,0.06,0.08,0.08c0.05,0.05,0.12,0.08,0.18,0.11c0.07,0.02,0.14,0.04,0.22,0.04C14.11,9.54,14.19,9.52,14.21,9.51
					z"/>
			</g>
			<g>
				<path d="M17.98,9.96c-0.31,0-0.47,0-0.56-0.1c-0.01-0.02-0.06-0.07-0.07-0.14c-0.06-0.3,0.19-0.48,0.46-0.58
					c0.25-0.12,0.49-0.24,0.74-0.39c0.17-0.08,0.3-0.07,0.41,0.11c0.04,0.1,0.06,0.19,0.06,0.3c0,0.11-0.02,0.21-0.06,0.3
					c-0.02,0.05-0.07,0.15-0.17,0.25c-0.03,0.03-0.06,0.06-0.09,0.07c0,0-0.05,0.04-0.1,0.07c-0.06,0.04-0.13,0.06-0.3,0.08
					C18.14,9.96,18.01,9.96,17.98,9.96z"/>
			</g>
			<g>
				<path d="M15.87,6.51c0.08-0.01,0.15,0.02,0.18,0.04c0.33,0.17,0.46,0.29,0.46,0.29c0.13,0.11,0.3,0.29,0.47,0.53
					c0.05,0.16,0,0.27-0.18,0.21c-0.42-0.11-0.8-0.36-1.05-0.72c-0.06-0.08-0.07-0.18-0.03-0.25C15.77,6.52,15.85,6.51,15.87,6.51z
					 M16.15,6.92c-0.02,0.03,0.11,0.16,0.24,0.25c0.13,0.09,0.3,0.16,0.33,0.13c0.02-0.03-0.11-0.16-0.24-0.25
					C16.34,6.96,16.17,6.89,16.15,6.92z"/>
			</g>
			<g>
				<path d="M36.47,18.73l-0.08-0.03c0.26-0.69,0.6-1.34,1.01-1.95c0.35-0.52,0.76-1,1.2-1.43c0.72-0.78,1.56-1.42,2.48-1.9
					c0.41-0.21,0.83-0.39,1.26-0.54l0.03,0.08c-0.43,0.15-0.85,0.33-1.25,0.53c-0.92,0.48-1.74,1.11-2.46,1.88
					c-0.45,0.43-0.85,0.91-1.19,1.42C37.06,17.4,36.73,18.05,36.47,18.73z"/>
			</g>
			<g>
				<path d="M37.71,19.76l-0.08-0.03c0.31-0.72,0.68-1.4,1.11-2.03c0.52-0.75,1.66-2.19,3.57-3.38c0.54-0.34,1.11-0.63,1.69-0.88
					l0.03,0.08c-0.58,0.25-1.14,0.54-1.68,0.88c-1.89,1.18-3.03,2.61-3.55,3.35C38.39,18.37,38.02,19.05,37.71,19.76z"/>
			</g>
			<g>
				<path d="M35.34,17.13l-0.07-0.05l1.62-2.1c1.08-1.14,2.32-2.04,3.7-2.68c0.57-0.27,1.17-0.49,1.79-0.67l0.02,0.08
					c-0.61,0.17-1.2,0.4-1.77,0.66c-1.37,0.64-2.6,1.53-3.67,2.66L35.34,17.13z"/>
			</g>
			<g>
				<path d="M34.65,16.17l-0.07-0.05c0.36-0.55,0.77-1.08,1.22-1.57c0.76-0.84,1.69-1.6,2.68-2.22c0.68-0.42,1.41-0.78,2.18-1.08
					c0.99-0.38,2.02-0.64,3.07-0.77l0.01,0.09c-1.04,0.13-2.07,0.38-3.05,0.76c-0.76,0.29-1.49,0.65-2.16,1.07
					c-0.98,0.61-1.9,1.37-2.66,2.2C35.42,15.1,35.01,15.62,34.65,16.17z"/>
			</g>
			<g>
				<path class="st5" d="M43.82,10.62"/>
			</g>
			<g>
				<path class="st5" d="M45.82,14.02"/>
			</g>
			<g>
				<path class="st5" d="M36.44,10.11"/>
			</g>
			<g>
				<path d="M39.49,20.34l-0.08-0.04c0.86-1.48,1.94-2.8,3.21-3.93c1.51-1.33,3.24-2.36,5.14-3.04l0.03,0.08
					c-1.89,0.68-3.61,1.7-5.11,3.03C41.42,17.56,40.34,18.87,39.49,20.34z"/>
			</g>
			<g>
				<path d="M41.89,19.55l-0.06-0.06l1.75-1.77c0.74-0.77,1.53-1.5,2.35-2.18c0.84-0.69,1.74-1.34,2.66-1.92l0.05,0.07
					c-0.92,0.58-1.81,1.22-2.65,1.91c-0.82,0.67-1.61,1.4-2.35,2.17L41.89,19.55z"/>
			</g>
			<g>
				<rect x="45.88" y="15.49" transform="matrix(0.4988 -0.8667 0.8667 0.4988 10.5157 49.2571)" width="3.93" height="0.09"/>
			</g>
			<g>
				<polygon points="47.09,20.21 47.01,20.17 49.57,14.54 49.65,14.57 				"/>
			</g>
			<g>
				<path d="M48.55,20.21l-0.08-0.05c0.38-0.62,0.69-1.28,0.93-1.96c0.28-0.82,0.45-1.67,0.5-2.54l0.09,0.01
					c-0.05,0.87-0.22,1.73-0.5,2.56C49.25,18.92,48.93,19.59,48.55,20.21z"/>
			</g>
			<g>
				<path d="M49.88,20.06l-0.08-0.04c0.29-0.61,0.51-1.26,0.64-1.93c0.13-0.67,0.19-1.35,0.15-2.04l0.09,0
					c0.03,0.69-0.02,1.38-0.15,2.06C50.39,18.79,50.18,19.44,49.88,20.06z"/>
			</g>
			<g>
				<path d="M50.76,19.67l-0.07-0.05c0.23-0.35,0.38-0.71,0.44-1.06c0.07-0.35,0.05-0.69-0.05-1.01l0.08-0.03
					c0.1,0.34,0.12,0.69,0.05,1.05C51.15,18.94,51,19.31,50.76,19.67z"/>
			</g>
			<g>
				<path d="M45.86,16.76c-0.55-0.53-1.14-1.03-1.76-1.47c-1.07-0.76-1.97-1.2-2.45-1.43c-0.65-0.31-1.38-0.61-2.11-0.85
					c-0.71-0.24-1.44-0.44-2.17-0.59l0.02-0.09c0.73,0.16,1.47,0.36,2.18,0.6c0.73,0.25,1.46,0.54,2.11,0.86
					c0.48,0.23,1.38,0.66,2.46,1.43c0.62,0.45,1.22,0.94,1.77,1.48L45.86,16.76z"/>
			</g>
			<g>
				<path d="M49.96,19.61c-0.5-0.89-1.08-1.73-1.73-2.49c-1.38-1.63-3.78-3.8-7.34-4.87c-0.88-0.27-1.8-0.45-2.72-0.55l0.01-0.09
					c0.93,0.1,1.85,0.29,2.73,0.55c3.58,1.08,5.99,3.26,7.38,4.9c0.65,0.77,1.24,1.61,1.74,2.5L49.96,19.61z"/>
			</g>
			<g>
				<path class="st6" d="M36.68,12.93"/>
			</g>
			<g>
				<path d="M43.8,17.46c-0.44-0.37-0.91-0.75-1.37-1.11c-1.27-0.98-2.37-1.83-3.9-2.6c-0.59-0.3-1.22-0.56-1.85-0.79l0.03-0.08
					c0.64,0.23,1.27,0.49,1.86,0.79c1.54,0.77,2.64,1.62,3.92,2.61c0.47,0.36,0.93,0.74,1.38,1.11L43.8,17.46z"/>
			</g>
			<g>
				<path d="M42.43,18.94c-1.05-1.14-2.16-2.24-3.3-3.28c-0.88-0.8-1.79-1.57-2.72-2.31l0.05-0.07c0.93,0.74,1.84,1.51,2.72,2.31
					c1.14,1.04,2.26,2.15,3.31,3.28L42.43,18.94z"/>
			</g>
			<g>
				<path d="M40.6,20.07c-0.44-0.54-0.88-1.1-1.31-1.66c-1.18-1.53-2.33-3.12-3.42-4.72l0.07-0.05c1.09,1.6,2.23,3.19,3.41,4.72
					c0.43,0.56,0.87,1.12,1.31,1.66L40.6,20.07z"/>
			</g>
			<g>
				<path d="M37.63,19.77c-0.47-0.77-0.88-1.59-1.22-2.43c-0.42-1.04-0.74-2.13-0.95-3.24l0.09-0.02c0.21,1.1,0.52,2.19,0.94,3.23
					c0.34,0.84,0.75,1.65,1.22,2.42L37.63,19.77z"/>
			</g>
			<g>
				<path class="st5" d="M51.41,19.02"/>
			</g>
			<g>
				<path d="M51.26,19.07c-0.67-1.28-1.5-2.48-2.46-3.56c-0.74-0.82-1.85-2.07-3.7-3.1c-1.33-0.74-2.78-1.23-4.32-1.45l0.01-0.09
					c1.55,0.23,3.01,0.72,4.35,1.46c1.87,1.04,2.99,2.29,3.73,3.12c0.97,1.08,1.8,2.29,2.47,3.58L51.26,19.07z"/>
			</g>
			<g>
				<path class="st2" d="M35.7,18.7"/>
			</g>
			<g>
				<path class="st2" d="M40.49,10.68"/>
			</g>
			<g>
				<path d="M34.42,15.91l-0.08-0.04c0.34-0.7,0.75-1.37,1.23-1.97c0.37-0.46,1.05-1.33,2.21-2.08c0.51-0.33,1.06-0.6,1.63-0.8
					l0.03,0.08c-0.57,0.2-1.11,0.47-1.61,0.8c-1.15,0.74-1.82,1.59-2.19,2.06C35.17,14.56,34.76,15.22,34.42,15.91z"/>
			</g>
			<g>
				<path d="M51.59,18.86l-0.09,0c0-0.09,0.01-0.18,0-0.27c-0.01-0.12-0.02-0.25-0.04-0.37l0.09-0.02c0.02,0.13,0.04,0.26,0.04,0.38
					C51.6,18.68,51.6,18.77,51.59,18.86z"/>
			</g>
			<g>
				<path class="st7" d="M40.07,8.28c-0.01,0.02-0.03,0.02-0.04,0.02c-0.04,0.01-0.1,0.02-0.18,0.03c-0.04,0.01-0.09,0.02-0.15,0.03
					c-0.06,0.01-0.1,0.02-0.19,0.04c-0.18,0.04-0.3,0.06-0.36,0.07c-0.05,0.01-0.09,0.02-0.12,0.02c-0.02,0-0.02,0-0.02,0
					c-0.59,0.11-1.67,0.4-1.67,0.4c-0.27,0.07-0.54,0.15-0.87,0.24c-0.19,0.06-0.29,0.08-0.4,0.12c0,0-0.37,0.11-0.49,0.16
					c-0.02,0.01-0.05,0.02-0.07,0.03l0,0c-0.06,0.02-0.11,0.03-0.12,0.02c0,0-0.02-0.02-0.02-0.03c-0.01-0.01-0.01-0.02-0.02-0.04
					c-0.01-0.01-0.01-0.02-0.01-0.03c-0.01-0.02-0.01-0.03-0.01-0.04c0,0,0,0,0,0c0,0,0-0.01,0.01-0.02
					c0.02-0.03,0.07-0.04,0.11-0.05c0.06-0.01,0.11-0.03,0.14-0.04c0.03-0.01,0.05-0.02,0.07-0.02c0.02-0.01,0.06-0.02,0.1-0.04
					c0.07-0.03,0.52-0.21,0.63-0.46c0.08-0.18,0.05-0.41-0.07-0.78c-0.4-1.35-0.82-2.72-1.2-4.07c-0.08-0.29-0.19-0.31-0.43-0.22
					c-0.56,0.18-1.11,0.4-1.64,0.7c-0.7,0.42-1.24,0.95-1.21,1.85c-0.01,0.17-0.11,0.21-0.22,0.25c-0.11,0.05-0.16-0.08-0.19-0.15
					c-0.19-0.32-0.35-0.64-0.55-0.95c-0.15-0.24-0.11-0.34,0.13-0.46c3.33-1.9,7.12-2.78,10.94-2.53c0.28,0,0.37,0.11,0.32,0.39
					c-0.05,0.35-0.06,0.7-0.08,1.07c0,0.08,0.02,0.22-0.12,0.22c-0.14,0.02-0.21,0-0.28-0.12c-0.09-0.18-0.45-0.62-0.52-0.71
					c-0.28-0.32-0.72-0.37-1.4-0.44c-0.13-0.02-0.25-0.02-0.47-0.03c0,0-0.49-0.02-1.03,0.1c-0.04,0.01-0.14,0.03-0.2,0.11
					c-0.06,0.08-0.06,0.17-0.06,0.21c0,0.67,0.58,4.36,0.6,4.58c0,0.02,0.01,0.13,0.07,0.24c0.04,0.08,0.1,0.14,0.14,0.17
					c0.08,0.07,0.15,0.09,0.18,0.1c0.07,0.02,0.12,0.03,0.19,0.03c0.06,0,0.12,0,0.23-0.02c0.14-0.01,0.21-0.02,0.24-0.03
					c0.02-0.01,0.1-0.02,0.19-0.04c0.07-0.01,0.1-0.02,0.12,0C40.08,8.19,40.09,8.24,40.07,8.28z"/>
			</g>
		</g>
	</g>
</g>
</svg>
